<?xml version="1.0" encoding="UTF-8"?>
<svg version="1.1" xmlns="http://www.w3.org/2000/svg" width="787" height="267">
<path d="M0 0 C259.71 0 519.42 0 787 0 C787 88.11 787 176.22 787 267 C527.29 267 267.58 267 0 267 C0 178.89 0 90.78 0 0 Z " fill="#FCFCFB" transform="translate(0,0)"/>
<path d="M0 0 C9.39040264 6.6503878 15.00706066 14.63436252 17 26 C17.29088053 29.42181906 17.33338866 32.81708823 17.3125 36.25 C17.30903564 37.17514404 17.30557129 38.10028809 17.30200195 39.0534668 C17.14144875 49.1771892 14.55672453 57.6249922 11 67 C15.57205552 66.930767 20.14322729 66.84263233 24.71459961 66.73754883 C26.26723362 66.70445223 27.81998353 66.67637349 29.37280273 66.65356445 C31.6149194 66.61973476 33.85598847 66.56741013 36.09765625 66.51171875 C37.12621483 66.50213387 37.12621483 66.50213387 38.17555237 66.49235535 C44.46249138 66.3038474 48.98251341 64.70365534 53.8125 60.625 C58.07653233 55.5081612 58.47089332 50.28492973 59.0625 43.875 C59.21707414 42.26793995 59.37450981 40.66115191 59.53515625 39.0546875 C59.600979 38.34812012 59.66680176 37.64155273 59.73461914 36.91357422 C60 35 60 35 61 32 C68.26 32 75.52 32 83 32 C83.02578125 33.89105469 83.0515625 35.78210938 83.078125 37.73046875 C83.134405 40.21616894 83.19175236 42.70184513 83.25 45.1875 C83.26417969 46.43337891 83.27835938 47.67925781 83.29296875 48.96289062 C83.32519531 50.16494141 83.35742188 51.36699219 83.390625 52.60546875 C83.41157227 53.71043701 83.43251953 54.81540527 83.45410156 55.95385742 C84.11481484 59.64067297 85.42341671 61.32967344 88 64 C90.92247573 65.46123786 93.55853839 65.2477615 96.8125 65.3125 C98.03582031 65.34988281 99.25914062 65.38726562 100.51953125 65.42578125 C104.67522586 64.91739661 106.1360278 64.01391838 109 61 C111.97563404 56.29876996 112.82423223 51.65305724 113.625 46.25 C113.74979736 45.4573877 113.87459473 44.66477539 114.00317383 43.84814453 C114.86653269 38.24633769 115.5442972 32.65071474 116 27 C120.85729645 26.02700844 125.4500625 25.87961195 130.375 25.9375 C131.11105469 25.94201172 131.84710937 25.94652344 132.60546875 25.95117188 C134.40368158 25.96284858 136.20185197 25.98077989 138 26 C138.02187378 27.16402344 138.02187378 27.16402344 138.04418945 28.3515625 C138.11911766 31.90151773 138.21563113 35.45057843 138.3125 39 C138.34633789 40.83111328 138.34633789 40.83111328 138.38085938 42.69921875 C138.56535714 53.38494427 138.56535714 53.38494427 143.4152832 62.64453125 C146.99876077 65.70961636 151.25351484 65.11632055 155.6875 65.0625 C156.38939453 65.05798828 157.09128906 65.05347656 157.81445312 65.04882812 C159.54300538 65.03706927 161.27151365 65.01913454 163 65 C166.3984176 59.10940949 166.1580423 52.7224452 166.125 46.125 C166.12886719 45.36058594 166.13273438 44.59617188 166.13671875 43.80859375 C166.13043159 40.10545849 165.99046242 36.50788829 165.49609375 32.8359375 C165.04287388 29.33151302 164.89741052 26.02787408 164.9375 22.5 C164.94652344 21.4584375 164.95554687 20.416875 164.96484375 19.34375 C164.98224609 18.18359375 164.98224609 18.18359375 165 17 C167.53729621 15.98749225 170.07889488 14.98990427 172.625 14 C173.33785156 13.71382812 174.05070313 13.42765625 174.78515625 13.1328125 C179.02007372 11.50100944 182.38276475 10.65043014 187 11 C189.34591168 16.39172533 189.93849094 21.63621298 190.625 27.4375 C190.75543701 28.53900391 190.88587402 29.64050781 191.02026367 30.77539062 C191.83453623 38.19042318 192.29057388 45.54060429 192.3125 53 C192.31781738 53.8758374 192.32313477 54.7516748 192.32861328 55.65405273 C192.20370917 67.02361424 189.23817371 79.64185289 181 88 C170.53404287 95.72487312 159.66159432 97.15724249 147 96 C138.65281696 94.44073874 132.84112579 91.1160023 127 85 C124.29866223 86.28833032 121.89356528 87.7346988 119.4375 89.4375 C109.69902412 95.46608031 98.19120029 96.29378038 87 95 C83.3779016 94.0798156 80.26330961 92.80495682 77 91 C76.030625 90.484375 75.06125 89.96875 74.0625 89.4375 C72.1358564 88.09468779 70.63071812 86.67717733 69 85 C68.443125 85.47050781 67.88625 85.94101563 67.3125 86.42578125 C58.41336047 93.68639678 50.37834333 96.146916 38.8515625 96.09765625 C37.86547501 96.09553383 37.86547501 96.09553383 36.85946655 96.09336853 C34.78126269 96.08781762 32.70317073 96.07527465 30.625 96.0625 C29.20703282 96.05747864 27.78906393 96.05291685 26.37109375 96.04882812 C22.91402678 96.03786437 19.45702433 96.02063421 16 96 C16.32379639 97.08498779 16.64759277 98.16997559 16.98120117 99.2878418 C19.43378741 108.22423617 19.01093884 118.564182 15 127 C9.36939814 136.38433644 1.31300848 141.78775146 -9 145 C-20.74661232 147.74920714 -31.78950446 145.15280777 -42.25 139.3125 C-51.11140657 133.57272529 -57.08235461 126.2366209 -62 117 C-62.47566406 116.1853125 -62.95132812 115.370625 -63.44140625 114.53125 C-65.93616675 110.03925959 -67.27547313 106.33814147 -67.63671875 101.18359375 C-67.74632935 99.72070923 -67.74632935 99.72070923 -67.8581543 98.22827148 C-67.92836792 97.1252771 -67.92836792 97.1252771 -68 96 C-68.95700806 96.0314209 -68.95700806 96.0314209 -69.93334961 96.06347656 C-87.02363046 96.54839429 -102.90659944 96.61810648 -117.80078125 87.171875 C-120.17302465 85.68649149 -120.17302465 85.68649149 -124 86 C-126.27375768 87.42988987 -126.27375768 87.42988987 -128.5625 89.3125 C-138.65510921 96.55922812 -149.95088291 97.05185865 -162 96 C-170.64367049 94.56310117 -177.13864408 90.19891286 -184 85 C-184.49628906 85.39832031 -184.99257813 85.79664063 -185.50390625 86.20703125 C-197.87661347 95.85633422 -211.48177888 97.42252513 -226.75 95.6875 C-234.74304485 94.13329683 -241.00789066 90.3928984 -247 85 C-249.39504757 86.06446559 -251.14672824 87.12946609 -253.125 88.875 C-259.27445369 93.42024838 -267.02007148 96.13456024 -274.67675781 96.11352539 C-275.59741028 96.11344986 -276.51806274 96.11337433 -277.46661377 96.11329651 C-278.45216248 96.10813522 -279.43771118 96.10297394 -280.453125 96.09765625 C-281.46848328 96.0962413 -282.48384155 96.09482635 -283.52996826 96.09336853 C-286.77000892 96.08777516 -290.00998025 96.07522385 -293.25 96.0625 C-295.44791567 96.05748414 -297.64583242 96.05292139 -299.84375 96.04882812 C-305.22919029 96.0378079 -310.61459019 96.02107633 -316 96 C-316.12973709 96.61524536 -316.25947418 97.23049072 -316.3931427 97.86437988 C-316.65450264 99.07716614 -316.65450264 99.07716614 -316.92114258 100.31445312 C-317.09212967 101.11532349 -317.26311676 101.91619385 -317.43928528 102.74133301 C-319.51632122 111.10803418 -325.45817386 118.58190221 -331 125 C-331.58265625 125.67804688 -332.1653125 126.35609375 -332.765625 127.0546875 C-340.67155996 135.59176853 -351.04558793 141.31518255 -362 145 C-362.96035156 145.33644531 -363.92070312 145.67289063 -364.91015625 146.01953125 C-371.15721173 148.08640091 -377.40908802 149.58454627 -383.875 150.75 C-384.57633057 150.87769775 -385.27766113 151.00539551 -386.00024414 151.13696289 C-390.41164519 151.88294313 -394.54862136 152.11622399 -399 152 C-400.34814664 148.94381251 -401.67582029 145.87913915 -403 142.8125 C-403.3815625 141.94818359 -403.763125 141.08386719 -404.15625 140.19335938 C-404.5171875 139.35224609 -404.878125 138.51113281 -405.25 137.64453125 C-405.75273437 136.48981323 -405.75273437 136.48981323 -406.265625 135.31176758 C-407.07639687 132.75950734 -407.1317489 130.66173943 -407 128 C-397.26689192 124.61143645 -387.54478097 121.57211101 -377.5625 119 C-369.72457656 116.9463603 -362.75955801 114.6130317 -356 110 C-355.0925 109.4225 -354.185 108.845 -353.25 108.25 C-350.93165301 105.93165301 -349.22209523 103.55382148 -347.359375 100.859375 C-346.72999023 99.95155273 -346.10060547 99.04373047 -345.45214844 98.10839844 C-344.97293945 97.41262695 -344.49373047 96.71685547 -344 96 C-344.8156543 95.9906543 -345.63130859 95.98130859 -346.47167969 95.97167969 C-349.55859313 95.92711909 -352.64458981 95.86526861 -355.73095703 95.79248047 C-357.69931469 95.75106641 -359.66804576 95.72879547 -361.63671875 95.70703125 C-374.18158374 95.38863366 -385.58798155 92.77448423 -395 84 C-397.50074347 80.85424448 -399.32166699 77.64469676 -401 74 C-401.33902344 73.27554688 -401.67804688 72.55109375 -402.02734375 71.8046875 C-406.79708019 59.1879653 -405.06751065 44.4641479 -399.70703125 32.3984375 C-397.54892768 28.10198416 -395.27766293 24.50825228 -392 21 C-391.46632813 20.38898438 -390.93265625 19.77796875 -390.3828125 19.1484375 C-386.15567154 14.57065812 -381.62266926 11.6299582 -376 9 C-375.20078125 8.60554688 -374.4015625 8.21109375 -373.578125 7.8046875 C-363.28182677 3.34295827 -351.52412747 3.34085305 -341 7.0625 C-329.22954581 12.27911827 -320.15068581 21.18270747 -315 33 C-310.75675519 44.47196479 -310.61839946 54.95466354 -311 67 C-305.89480771 66.95556372 -300.79081908 66.88543839 -295.6862793 66.79248047 C-293.95330434 66.76442263 -292.22020503 66.74313325 -290.48706055 66.72900391 C-277.20476589 66.74993921 -277.20476589 66.74993921 -265 62 C-264.01 61.67 -263.02 61.34 -262 61 C-260.12007425 51.89595706 -258.66208845 43.10166251 -258.30859375 33.79296875 C-258 31 -258 31 -256 28 C-250.21211463 26.64538853 -243.91009638 26.44475209 -238 27 C-237.01 27.66 -236.02 28.32 -235 29 C-234.61523438 31.3190918 -234.61523438 31.3190918 -234.59375 34.19921875 C-234.57183594 35.24400391 -234.54992187 36.28878906 -234.52734375 37.36523438 C-234.51832031 38.46158203 -234.50929688 39.55792969 -234.5 40.6875 C-234.64032299 52.52796655 -234.64032299 52.52796655 -228.6875 62.3125 C-222.1548214 66.41441447 -215.56307382 66.69217903 -208 66 C-203.52937674 64.55286184 -201.04367226 62.61950215 -198 59 C-195.39422553 53.19365471 -195.36321725 46.94739453 -194.9375 40.6875 C-194.7839559 38.50362076 -194.62661808 36.32000375 -194.46484375 34.13671875 C-194.399021 33.17467529 -194.33319824 32.21263184 -194.26538086 31.22143555 C-194 29 -194 29 -193 28 C-190.22189626 27.70772341 -187.4733447 27.48418312 -184.6875 27.3125 C-183.91470703 27.25255859 -183.14191406 27.19261719 -182.34570312 27.13085938 C-174.93838323 26.66591152 -174.93838323 26.66591152 -172 29 C-170.99258573 32.0222428 -170.84745803 34.1682257 -170.7890625 37.33203125 C-170.76070312 38.37810547 -170.73234375 39.42417969 -170.703125 40.50195312 C-170.6513221 42.69710081 -170.60696884 44.89243778 -170.5703125 47.08789062 C-170.37506835 53.7139888 -169.86721047 58.53545401 -165.5 63.8125 C-160.8315298 67.50837224 -153.5874456 66.37845999 -148 66 C-142.36758331 64.12252777 -139.49541168 60.91211748 -136.8125 55.6875 C-134.03181561 46.48985165 -134.67595085 36.4105036 -134.44775391 26.88061523 C-134.39623758 24.78616957 -134.33899323 22.69193801 -134.28125 20.59765625 C-134.25095703 19.35508057 -134.22066406 18.11250488 -134.18945312 16.83227539 C-134 14 -134 14 -133 13 C-131.29227642 12.91286169 -129.58101351 12.89299993 -127.87109375 12.90234375 C-126.31938477 12.90717773 -126.31938477 12.90717773 -124.73632812 12.91210938 C-123.64771484 12.92048828 -122.55910156 12.92886719 -121.4375 12.9375 C-119.7987793 12.94426758 -119.7987793 12.94426758 -118.12695312 12.95117188 C-115.41791505 12.96300174 -112.70898401 12.97948457 -110 13 C-110.01571045 14.18029785 -110.0314209 15.3605957 -110.04760742 16.57666016 C-110.10205894 20.97112152 -110.13640538 25.36555326 -110.16479492 29.76025391 C-110.17984691 31.65939353 -110.20029316 33.55849859 -110.22631836 35.45751953 C-110.26285992 38.19312081 -110.27976238 40.928261 -110.29296875 43.6640625 C-110.30845261 44.50804596 -110.32393646 45.35202942 -110.33988953 46.22158813 C-110.34132669 51.29798228 -109.61597119 54.51289174 -107 59 C-107 59.66 -107 60.32 -107 61 C-98.36815645 64.74046554 -90.25672835 66.45690977 -80.875 66.6875 C-79.91851562 66.72166016 -78.96203125 66.75582031 -77.9765625 66.79101562 C-75.65115927 66.87240474 -73.32608124 66.94189612 -71 67 C-70.97421875 66.319375 -70.9484375 65.63875 -70.921875 64.9375 C-69.77855303 45.39708813 -63.30490631 27.5584735 -50 13 C-49.49082031 12.43410156 -48.98164062 11.86820313 -48.45703125 11.28515625 C-47.125 9.875 -47.125 9.875 -45 8 C-44.34 8 -43.68 8 -43 8 C-43 7.34 -43 6.68 -43 6 C-31.87740675 -3.61777181 -13.21461154 -6.73560297 0 0 Z " fill="#6E282E" transform="translate(572,91)"/>
<path d="M0 0 C0.79259245 5.57969546 1.14683448 10.96983916 1.13061523 16.60107422 C1.13181177 17.42080845 1.13300831 18.24054268 1.1342411 19.08511734 C1.13580769 21.78334777 1.12904138 24.48146932 1.12109375 27.1796875 C1.11908368 28.58915461 1.11908368 28.58915461 1.117033 30.02709579 C1.08347821 51.12086313 0.6490662 72.20223602 0.13116455 93.28881836 C0.03862775 97.11104047 -0.04851623 100.93337819 -0.13568687 104.75572586 C-0.51176771 121.2115544 -0.89532165 137.66803262 -1.50390625 154.1171875 C-1.53910873 155.13700714 -1.57431122 156.15682678 -1.61058044 157.20755005 C-1.6470015 158.10956146 -1.68342255 159.01157288 -1.72094727 159.94091797 C-1.76579002 161.09477493 -1.76579002 161.09477493 -1.8115387 162.27194214 C-2 164 -2 164 -3 165 C-11.09627553 166.48707102 -18.55552026 166 -27 166 C-27 111.88 -27 57.76 -27 2 C-8 0 -8 0 0 0 Z " fill="#6E282E" transform="translate(147,21)"/>
<path d="M0 0 C0.99 0 1.98 0 3 0 C15.40135089 19.26050514 20.59156175 45.57452443 15.75 68 C15.19776729 70.0088098 14.61606597 72.00983908 14 74 C13.74476562 74.90621094 13.48953125 75.81242187 13.2265625 76.74609375 C6.7161405 97.32261097 -9.50578735 112.61446464 -28.1875 122.375 C-36.67338109 126.39462789 -43.64683594 128.20556405 -53 128 C-54.01618866 125.33855352 -55.01291841 122.67223438 -56 120 C-56.28617188 119.25621094 -56.57234375 118.51242188 -56.8671875 117.74609375 C-58.7425014 112.61130568 -59.47006384 108.47202517 -59 103 C-56.8163642 100.96193992 -54.60768996 100.24107627 -51.86328125 99.15234375 C-51.06277344 98.83394531 -50.26226562 98.51554687 -49.4375 98.1875 C-48.56738281 97.84203125 -47.69726562 97.4965625 -46.80078125 97.140625 C-31.80780026 91.0346969 -19.14212284 81.80940861 -11.94921875 66.80859375 C-5.13177548 49.78114065 -11.49695728 34.08065325 -18 18 C-18.56847656 16.70255859 -18.56847656 16.70255859 -19.1484375 15.37890625 C-20 13 -20 13 -20 9 C-19.42967041 8.76289307 -18.85934082 8.52578613 -18.27172852 8.28149414 C-15.70091618 7.21104366 -13.1316958 6.13682419 -10.5625 5.0625 C-9.66466797 4.68931641 -8.76683594 4.31613281 -7.84179688 3.93164062 C-6.98779297 3.57392578 -6.13378906 3.21621094 -5.25390625 2.84765625 C-4.46314697 2.51773682 -3.6723877 2.18781738 -2.85766602 1.84790039 C-1.02623203 1.14278509 -1.02623203 1.14278509 0 0 Z " fill="#6E2930" transform="translate(82,115)"/>
<path d="M0 0 C2.93423195 1.79646854 4.47205355 2.9441071 6 6 C7.15272796 27.68737021 7.15272796 27.68737021 0 36 C-9.31460886 42.70651838 -19.91592329 42.28748326 -31 42 C-28.20293481 13.83355354 -28.20293481 13.83355354 -18.5625 4.6875 C-12.34874472 0.59551482 -7.46610725 -1.15724662 0 0 Z " fill="#FBFAFA" transform="translate(556,116)"/>
<path d="M0 0 C9.2303677 5.35298535 12.36909782 15.71124807 14.9765625 25.51171875 C15.478264 28.40750459 15.45063507 31.14799931 15.421875 34.08203125 C11.29613694 34.20664694 7.17114369 34.29684029 3.04394531 34.35668945 C1.64336031 34.38166537 0.24290339 34.41565942 -1.15722656 34.45922852 C-16.26321896 34.91714911 -16.26321896 34.91714911 -22.578125 29.08203125 C-26.02916052 25.45844395 -26.87801073 22.58222952 -27.140625 17.70703125 C-26.88490137 10.74566582 -23.89043318 6.73438475 -19.453125 1.64453125 C-14.39981094 -2.5665638 -5.9136964 -2.10563432 0 0 Z " fill="#FAF9F9" transform="translate(218.578125,123.91796875)"/>
<path d="M0 0 C1.41170765 1.59675178 2.75399468 3.25513602 4.0625 4.9375 C7.86584642 9.73651922 11.89903603 13.93263346 16.4453125 18.02734375 C18 20 18 20 17.79736328 21.89599609 C16.25704138 25.96044624 12.78930654 28.67967404 9.75 31.6875 C9.08097656 32.37650391 8.41195312 33.06550781 7.72265625 33.77539062 C6.73845703 34.75862305 6.73845703 34.75862305 5.734375 35.76171875 C5.13850586 36.35944092 4.54263672 36.95716309 3.92871094 37.57299805 C1.60147356 39.29485912 -0.13207718 39.73805857 -3 40 C-5.09765625 38.7421875 -5.09765625 38.7421875 -7.0625 36.875 C-8.09503906 35.90046875 -8.09503906 35.90046875 -9.1484375 34.90625 C-11.27214729 32.71981461 -13.15137544 30.42233563 -15 28 C-15.86625 27.154375 -16.7325 26.30875 -17.625 25.4375 C-19.75204167 23.25448355 -20.75377872 21.70395719 -22 19 C-3.28078818 0 -3.28078818 0 0 0 Z " fill="#6F2A30" transform="translate(674,61)"/>
<path d="M0 0 C4.19371478 0.51580449 6.19146179 1.67416525 9.20703125 4.59765625 C9.95791016 5.31630859 10.70878906 6.03496094 11.48242188 6.77539062 C12.25134766 7.53013672 13.02027344 8.28488281 13.8125 9.0625 C14.60076172 9.82111328 15.38902344 10.57972656 16.20117188 11.36132812 C18.14274943 13.23230286 20.07509616 15.11189999 22 17 C19.33421341 22.17895181 15.37510711 26.03325343 11.375 30.1875 C10.00577151 31.6165368 8.63848393 33.04743661 7.2734375 34.48046875 C6.66935059 35.10848389 6.06526367 35.73649902 5.44287109 36.38354492 C3.91332811 37.95502811 3.91332811 37.95502811 3 40 C0.03408263 38.68650524 -1.82721679 37.3614488 -3.91015625 34.8828125 C-4.42513672 34.27566406 -4.94011719 33.66851562 -5.47070312 33.04296875 C-5.99599609 32.41003906 -6.52128906 31.77710937 -7.0625 31.125 C-7.59166016 30.49980469 -8.12082031 29.87460937 -8.66601562 29.23046875 C-9.68137903 28.02528207 -10.68911314 26.81361385 -11.68798828 25.59472656 C-12.74472376 24.31028366 -13.83423733 23.0528457 -14.93359375 21.8046875 C-16 20 -16 20 -16.01953125 18.08984375 C-14.5143129 15.00443449 -12.1545187 12.88271035 -9.6875 10.5625 C-6.19056777 7.22304551 -2.94248572 3.85109176 0 0 Z " fill="#6C292E" transform="translate(692,27)"/>
<path d="M0 0 C3.13108623 1.36518076 4.99383017 2.83217855 7.1875 5.4375 C7.78046875 6.13746094 8.3734375 6.83742188 8.984375 7.55859375 C12.67261488 12.02593857 16.35186483 16.49980605 20 21 C17.0784645 28.14153122 8.75112847 34.46369461 2 38 C-1.26147784 37.60719723 -2.89459526 36.47504002 -5.1640625 34.1640625 C-5.72867188 33.59429687 -6.29328125 33.02453125 -6.875 32.4375 C-7.4525 31.839375 -8.03 31.24125 -8.625 30.625 C-9.21023438 30.03460938 -9.79546875 29.44421875 -10.3984375 28.8359375 C-17 22.11324541 -17 22.11324541 -17 18.1875 C-15.70397361 14.05641588 -13.45050139 11.58101165 -10 9 C-9.34 9 -8.68 9 -8 9 C-7.67 8.01 -7.34 7.02 -7 6 C-5.37109375 4.39453125 -5.37109375 4.39453125 -3.4375 2.8125 C-2.79683594 2.28269531 -2.15617188 1.75289063 -1.49609375 1.20703125 C-1.00238281 0.80871094 -0.50867188 0.41039062 0 0 Z " fill="#6F2930" transform="translate(716,63)"/>
<path d="M0 0 C4.32330779 -0.0496011 8.64646285 -0.0858144 12.9699707 -0.10986328 C14.43940112 -0.11989352 15.90881171 -0.13352101 17.37817383 -0.15087891 C19.49565537 -0.17525898 21.61287199 -0.18651286 23.73046875 -0.1953125 C25.63928833 -0.21102295 25.63928833 -0.21102295 27.58666992 -0.22705078 C33.01384871 0.13395889 37.33570421 1.91692755 41 6 C41.90891573 9.81744605 41.86819415 13.32385375 40.04296875 16.84765625 C37.45248954 20.19471986 34.95636863 21.75239512 31 23 C23.67083517 23.83186459 16.74007888 24.1697657 10.67578125 19.546875 C5.24542255 14.5342362 2.13957541 10.13191804 0 3 C0 2.01 0 1.02 0 0 Z " fill="#FBFAF9" transform="translate(527,187)"/>
<path d="M0 0 C1.65 0 3.3 0 5 0 C5 0.66 5 1.32 5 2 C7.475 2.495 7.475 2.495 10 3 C9.6875 6.375 9.6875 6.375 9 10 C8.01 10.66 7.02 11.32 6 12 C5.690625 12.66 5.38125 13.32 5.0625 14 C4 16 4 16 2.10546875 16.8671875 C-0.46645054 18.25096597 -1.29539784 19.61985184 -2.75 22.125 C-3.17796875 22.84945312 -3.6059375 23.57390625 -4.046875 24.3203125 C-4.36140625 24.87460937 -4.6759375 25.42890625 -5 26 C-3.68 25.67 -2.36 25.34 -1 25 C-1.66 26.32 -2.32 27.64 -3 29 C-0.69 29.66 1.62 30.32 4 31 C2.948125 32.0209375 2.948125 32.0209375 1.875 33.0625 C0.9117299 34.03681045 -0.04609609 35.01651768 -1 36 C-1.55042969 36.56589844 -2.10085938 37.13179687 -2.66796875 37.71484375 C-6.06446936 41.29933613 -6.06446936 41.29933613 -7.375 45.9375 C-7.25125 46.618125 -7.1275 47.29875 -7 48 C-7.66 48 -8.32 48 -9 48 C-9 47.01 -9 46.02 -9 45 C-9.33 45.66 -9.66 46.32 -10 47 C-11.32 46.67 -12.64 46.34 -14 46 C-14 46.66 -14 47.32 -14 48 C-14.66 47.67 -15.32 47.34 -16 47 C-16.09410156 46.4328125 -16.18820312 45.865625 -16.28515625 45.28125 C-17.35761531 41.85875769 -19.88167365 39.8837059 -22.4375 37.5 C-28.50378118 31.79878312 -28.50378118 31.79878312 -30 28 C-28.68 28 -27.36 28 -26 28 C-25.67 27.67 -25.34 27.34 -25 27 C-23.67203709 26.64587656 -22.33783393 26.31478446 -21 26 C-20.01 25.67 -19.02 25.34 -18 25 C-15.7363436 26.40445835 -13.9791315 28.1967913 -12 30 C-11.73574219 29.40703125 -11.47148438 28.8140625 -11.19921875 28.203125 C-9.95629575 25.91970946 -8.69598354 24.52573277 -6.8125 22.75 C-1.84481108 17.91741559 2.8835064 13.23298721 6 7 C4.02 4.69 2.04 2.38 0 0 Z " fill="#F6F5F5" transform="translate(707,37)"/>
<path d="M0 0 C0.66 1.32 1.32 2.64 2 4 C1.01 4 0.02 4 -1 4 C-2.58255197 8.32564205 -3.45144652 12.428721 -4 17 C-3.01 17.33 -2.02 17.66 -1 18 C0.67067133 19.99665598 2.33752986 21.99651034 4 24 C4.66 24 5.32 24 6 24 C6.66 24.99 7.32 25.98 8 27 C12.403606 25.66557394 15.14241507 23.30702993 18.44921875 20.2421875 C20 19 20 19 22 19 C22 19.66 22 20.32 22 21 C20.11864124 22.66541663 18.25205353 24.18130392 16.25 25.6875 C15.71117187 26.11611328 15.17234375 26.54472656 14.6171875 26.98632812 C10.55973783 30.05910403 10.55973783 30.05910403 8.00927734 29.78979492 C5.73268534 28.89492553 4.54477523 27.90415617 2.8359375 26.1640625 C2.27132812 25.59429687 1.70671875 25.02453125 1.125 24.4375 C0.5475 23.839375 -0.03 23.24125 -0.625 22.625 C-1.21023438 22.03460938 -1.79546875 21.44421875 -2.3984375 20.8359375 C-8.94694195 14.167277 -8.94694195 14.167277 -9.125 10.25 C-7.45555416 5.42715646 -3.96271726 3.05102149 0 0 Z " fill="#632B31" transform="translate(708,71)"/>
<path d="M0 0 C1.8871875 0.061875 1.8871875 0.061875 3.8125 0.125 C4.66877719 6.04326143 4.95955777 11.77463964 4.9453125 17.75 C4.94626923 18.65516357 4.94722595 19.56032715 4.94821167 20.49291992 C4.94888897 22.40234446 4.9470662 24.31177136 4.94287109 26.22119141 C4.93756673 29.08892231 4.94280546 31.95649298 4.94921875 34.82421875 C4.95272629 45.63306655 4.65982648 56.34716152 3.8125 67.125 C3.4825 67.125 3.1525 67.125 2.8125 67.125 C2.3175 35.445 2.3175 35.445 1.8125 3.125 C-1.1575 2.795 -4.1275 2.465 -7.1875 2.125 C-4.09861478 0.06574319 -3.47814073 -0.1140374 0 0 Z " fill="#653237" transform="translate(143.1875,20.875)"/>
<path d="M0 0 C0.99 0.33 1.98 0.66 3 1 C3.33 0.67 3.66 0.34 4 0 C4.99 0.33 5.98 0.66 7 1 C6.938125 1.928125 6.87625 2.85625 6.8125 3.8125 C6.74385313 6.88573575 6.74385313 6.88573575 8.0625 8.75 C11.32381664 10.85407525 15.10999307 12 19 12 C20.32 12 21.64 12 23 12 C22.67 14.97 22.34 17.94 22 21 C21.34 21 20.68 21 20 21 C20 20.01 20 19.02 20 18 C19.67 18.66 19.34 19.32 19 20 C17.68 19.67 16.36 19.34 15 19 C15 19.66 15 20.32 15 21 C14.34 20.67 13.68 20.34 13 20 C12.90589844 19.4328125 12.81179688 18.865625 12.71484375 18.28125 C11.64238469 14.85875769 9.11832635 12.8837059 6.5625 10.5 C0.49621882 4.79878312 0.49621882 4.79878312 -1 1 C-0.67 0.67 -0.34 0.34 0 0 Z " fill="#EFEAE7" transform="translate(678,64)"/>
<path d="M0 0 C0.33 0.99 0.66 1.98 1 3 C1.99 3.33 2.98 3.66 4 4 C3.67 4.99 3.34 5.98 3 7 C18.76470899 7.59123373 18.76470899 7.59123373 34 4 C34 4.66 34 5.32 34 6 C26.62747899 8.87207775 20.00405849 10.40287819 12.125 10.4375 C11.4244751 10.44716797 10.7239502 10.45683594 10.00219727 10.46679688 C4.93126547 10.3849397 1.41948643 9.31147052 -3 7 C-3.33 6.34 -3.66 5.68 -4 5 C-3.01 5 -2.02 5 -1 5 C-2.32 4.34 -3.64 3.68 -5 3 C-4.67 2.34 -4.34 1.68 -4 1 C-1.9375 0.375 -1.9375 0.375 0 0 Z " fill="#5D1F27" transform="translate(655,176)"/>
<path d="M0 0 C6.6 0 13.2 0 20 0 C20.38297872 26.29787234 20.38297872 26.29787234 18 36 C17.67 36 17.34 36 17 36 C17.33 25.77 17.66 15.54 18 5 C13.05 5 8.1 5 3 5 C3 4.67 3 4.34 3 4 C7.95 4 12.9 4 18 4 C18 3.01 18 2.02 18 1 C12.06 1 6.12 1 0 1 C0 0.67 0 0.34 0 0 Z " fill="#5F2027" transform="translate(442,104)"/>
<path d="M0 0 C0.87454834 0.04713135 1.74909668 0.0942627 2.65014648 0.14282227 C4.06650391 0.21533203 4.06650391 0.21533203 5.51147461 0.28930664 C6.50469727 0.34538086 7.49791992 0.40145508 8.52124023 0.45922852 C9.51833008 0.51143555 10.51541992 0.56364258 11.54272461 0.61743164 C14.01501545 0.74755221 16.48694653 0.88253033 18.95874023 1.02172852 C18.95874023 2.01172852 18.95874023 3.00172852 18.95874023 4.02172852 C16.70880664 4.04879991 14.45877928 4.06815681 12.20874023 4.08422852 C10.95577148 4.09583008 9.70280273 4.10743164 8.41186523 4.11938477 C5.67337523 4.04193878 3.53993731 3.84953667 0.95874023 3.02172852 C1.28874023 4.01172852 1.61874023 5.00172852 1.95874023 6.02172852 C1.29874023 6.02172852 0.63874023 6.02172852 -0.04125977 6.02172852 C-0.04125977 9.32172852 -0.04125977 12.62172852 -0.04125977 16.02172852 C-1.03125977 16.02172852 -2.02125977 16.02172852 -3.04125977 16.02172852 C-3.06811072 13.54249051 -3.08802524 11.06354012 -3.10375977 8.58422852 C-3.11632812 7.52365234 -3.11632812 7.52365234 -3.12915039 6.44165039 C-3.13779564 4.63479292 -3.09345988 2.82785249 -3.04125977 1.02172852 C-2.04125977 0.02172852 -2.04125977 0.02172852 0 0 Z " fill="#76343B" transform="translate(441.041259765625,103.978271484375)"/>
<path d="M0 0 C0.99 0.33 1.98 0.66 3 1 C2.125 5.875 2.125 5.875 1 7 C1 7.33 1 7.66 1 8 C-5.15672078 8.96198762 -11.16942685 9.06578907 -17.375 8.75 C-18.40947266 8.71048218 -18.40947266 8.71048218 -19.46484375 8.67016602 C-23.53227334 8.41893657 -26.02159727 7.84093799 -29 5 C-28.1440625 5.15984375 -27.288125 5.3196875 -26.40625 5.484375 C-18.82893109 6.63140034 -10.55893385 7.54080036 -4 3 C-3.278125 2.4225 -2.55625 1.845 -1.8125 1.25 C-1.214375 0.8375 -0.61625 0.425 0 0 Z " fill="#5D2026" transform="translate(434,151)"/>
<path d="M0 0 C3.99432781 1.62061033 6.79558321 4.39339173 9.8125 7.375 C10.5849707 8.09816406 10.5849707 8.09816406 11.37304688 8.8359375 C12.83203125 10.2734375 12.83203125 10.2734375 15 13 C14.953125 15.2421875 14.953125 15.2421875 14 17 C11.9375 18.75 11.9375 18.75 10 20 C10.66 18.02 11.32 16.04 12 14 C10.68 13.67 9.36 13.34 8 13 C8 13.99 8 14.98 8 16 C6.35 16.33 4.7 16.66 3 17 C3.66 15.02 4.32 13.04 5 11 C4.34 10.67 3.68 10.34 3 10 C3.33 9.34 3.66 8.68 4 8 C4.99 8 5.98 8 7 8 C6.21625 7.236875 5.4325 6.47375 4.625 5.6875 C2 3 2 3 0 0 Z " fill="#602429" transform="translate(677,68)"/>
<path d="M0 0 C1.65 0 3.3 0 5 0 C5 0.66 5 1.32 5 2 C6.65 2.33 8.3 2.66 10 3 C9.6875 6.375 9.6875 6.375 9 10 C8.01 10.66 7.02 11.32 6 12 C5.690625 12.66 5.38125 13.32 5.0625 14 C4 16 4 16 2.125 16.8125 C-0.34526016 18.1929395 -0.69498565 19.08753214 -1.9375 21.5625 C-3.66876397 24.88707863 -3.66876397 24.88707863 -6.75 25.9375 C-7.4925 25.958125 -8.235 25.97875 -9 26 C-8.154375 25.01 -7.30875 24.02 -6.4375 23 C-5.89480469 22.36449219 -5.35210938 21.72898437 -4.79296875 21.07421875 C-3.5790886 19.66992603 -2.35204669 18.27692167 -1.11328125 16.89453125 C-0.49839844 16.20746094 0.11648438 15.52039062 0.75 14.8125 C1.32234375 14.17957031 1.8946875 13.54664063 2.484375 12.89453125 C4.28478313 10.77964888 4.28478313 10.77964888 6 7 C4.02 4.69 2.04 2.38 0 0 Z " fill="#EDE6E5" transform="translate(707,37)"/>
<path d="M0 0 C0.33 0 0.66 0 1 0 C1 7.92 1 15.84 1 24 C1.66 24.33 2.32 24.66 3 25 C2.01 25.639375 1.02 26.27875 0 26.9375 C-1.485 27.9584375 -1.485 27.9584375 -3 29 C-3 29.33 -3 29.66 -3 30 C-4.216875 29.855625 -5.43375 29.71125 -6.6875 29.5625 C-12.7787685 28.88136774 -18.88764914 28.44401931 -25 28 C-25 27.67 -25 27.34 -25 27 C-13.12 26.01 -13.12 26.01 -1 25 C-0.67 16.75 -0.34 8.5 0 0 Z " fill="#ECE0DF" transform="translate(145,160)"/>
<path d="M0 0 C-1.67060758 1.83766833 -2.75250471 2.91264872 -5.125 3.75 C-7.40267295 4.95040638 -7.40267295 4.95040638 -7.6875 8.375 C-7.790625 9.57125 -7.89375 10.7675 -8 12 C-8.30903983 13.33917261 -8.62942911 14.67653254 -9 16 C-9.66 14.02 -10.32 12.04 -11 10 C-11.99 10.495 -11.99 10.495 -13 11 C-13.33 8.36 -13.66 5.72 -14 3 C-4.58997722 -1.77676538 -4.58997722 -1.77676538 0 0 Z " fill="#70343C" transform="translate(76,121)"/>
<path d="M0 0 C0.66 0.33 1.32 0.66 2 1 C3.15995361 5.00442582 3.16548689 8.97772966 3.1875 13.125 C3.20167969 14.34445313 3.21585938 15.56390625 3.23046875 16.8203125 C3 20 3 20 1 23 C1 22.34 1 21.68 1 21 C-0.32 20.67 -1.64 20.34 -3 20 C-2.67 15.38 -2.34 10.76 -2 6 C-1.67 6 -1.34 6 -1 6 C-0.67 4.02 -0.34 2.04 0 0 Z " fill="#622329" transform="translate(587,188)"/>
<path d="M0 0 C3.63 0 7.26 0 11 0 C11 0.33 11 0.66 11 1 C9.35 1.33 7.7 1.66 6 2 C5.34 4.64 4.68 7.28 4 10 C3.34 10 2.68 10 2 10 C1.01 15.28 0.02 20.56 -1 26 C-1.33 26 -1.66 26 -2 26 C-1.49339055 17.31218694 -0.9464702 8.65344181 0 0 Z " fill="#5B1E25" transform="translate(688,118)"/>
<path d="M0 0 C2 2 2 2 2.1953125 5.6953125 C2.182009 7.17200108 2.15814835 8.64862358 2.125 10.125 C2.11597656 10.87910156 2.10695313 11.63320312 2.09765625 12.41015625 C2.0740687 14.27357254 2.03819719 16.13682593 2 18 C1.67 18 1.34 18 1 18 C0.67 14.37 0.34 10.74 0 7 C-0.66 7.66 -1.32 8.32 -2 9 C-2.33 7.02 -2.66 5.04 -3 3 C-5.10304477 2.8919977 -7.20766909 2.81441013 -9.3125 2.75 C-10.48425781 2.70359375 -11.65601563 2.6571875 -12.86328125 2.609375 C-16.09700569 2.67565396 -16.09700569 2.67565396 -17.91796875 5.015625 C-18.27503906 5.67046875 -18.63210938 6.3253125 -19 7 C-19.042721 5.33388095 -19.04063832 3.66617115 -19 2 C-15.41935678 -1.58064322 -4.63672565 -0.45367631 0 0 Z " fill="#5D2128" transform="translate(334,118)"/>
<path d="M0 0 C2.9719385 1.12451727 5.33440687 2.22293791 8 4 C8 4.66 8 5.32 8 6 C7.34 6 6.68 6 6 6 C6 6.66 6 7.32 6 8 C4.02 8.33 2.04 8.66 0 9 C-0.33 8.01 -0.66 7.02 -1 6 C-3.31 6.33 -5.62 6.66 -8 7 C-7.236875 6.401875 -6.47375 5.80375 -5.6875 5.1875 C-3.6516425 3.53040668 -1.8021721 1.89702326 0 0 Z M0 2 C0 5 0 5 0 5 Z " fill="#F3F1F0" transform="translate(449,175)"/>
<path d="M0 0 C-0.66 1.32 -1.32 2.64 -2 4 C-0.68 3.01 0.64 2.02 2 1 C2.66 1.33 3.32 1.66 4 2 C2.71451591 3.33929505 1.42141845 4.67128643 0.125 6 C-0.59429688 6.7425 -1.31359375 7.485 -2.0546875 8.25 C-4 10 -4 10 -6 10 C-6 9.34 -6 8.68 -6 8 C-6.66 8 -7.32 8 -8 8 C-10 3.25 -10 3.25 -10 1 C-9.4225 1.20625 -8.845 1.4125 -8.25 1.625 C-4.87447636 2.18758727 -3.25980896 0 0 0 Z " fill="#6C252D" transform="translate(683,87)"/>
<path d="M0 0 C3 1 3 1 5.1875 3.3125 C8.51884688 6.49578702 11.85476493 8.1128055 16 10 C17.33564811 10.66201689 18.66964277 11.32741405 20 12 C12.76933112 12.92700883 7.46915708 8.86446555 1.9375 4.6875 C0.9784375 3.8521875 0.9784375 3.8521875 0 3 C-0.51949219 3.42152344 -1.03898437 3.84304687 -1.57421875 4.27734375 C-8.50087873 9.71880492 -8.50087873 9.71880492 -13 10 C-10.6902462 7.51142655 -8.21982599 5.7190403 -5.375 3.875 C-2.54227678 2.11973445 -2.54227678 2.11973445 0 0 Z " fill="#511D21" transform="translate(388,173)"/>
<path d="M0 0 C1 3 1 3 -0.3125 5.6875 C-0.869375 6.450625 -1.42625 7.21375 -2 8 C-2.66 8 -3.32 8 -4 8 C-4 8.99 -4 9.98 -4 11 C-4.61875 11.268125 -5.2375 11.53625 -5.875 11.8125 C-8.2995233 12.95556848 -8.2995233 12.95556848 -10 16 C-10.66 16 -11.32 16 -12 16 C-12.99 18.475 -12.99 18.475 -14 21 C-15.65 20.67 -17.3 20.34 -19 20 C-16.31512184 17.2337619 -13.62345245 14.67312861 -10.625 12.25 C-6.40458948 8.70671028 -3.23855483 4.42963426 0 0 Z " fill="#F2E6E6" transform="translate(85,210)"/>
<path d="M0 0 C0.92679565 0.62575928 0.92679565 0.62575928 1.87231445 1.26416016 C9.90143647 6.20999979 16.88125627 7.04976932 26.1875 7.375 C27.53462965 7.44153694 28.88164017 7.51053307 30.22851562 7.58203125 C33.48533992 7.74545612 36.74119355 7.88421946 40 8 C40 8.33 40 8.66 40 9 C36.00006253 9.05855764 32.00023692 9.09378299 28 9.125 C26.87464844 9.14175781 25.74929687 9.15851563 24.58984375 9.17578125 C16.47130147 9.22325811 9.44638062 8.50417911 2 5 C1.34 4.34 0.68 3.68 0 3 C0 2.01 0 1.02 0 0 Z " fill="#571017" transform="translate(193,151)"/>
<path d="M0 0 C-1.75596452 2.24373245 -2.79045457 2.95126073 -5.60205078 3.60522461 C-9.51229762 4.05951899 -13.31926569 4.02327644 -17.2421875 3.87890625 C-18.39474533 3.84348976 -18.39474533 3.84348976 -19.57058716 3.80735779 C-22.00560561 3.73127024 -24.44026088 3.6470128 -26.875 3.5625 C-28.53383687 3.5092242 -30.19269103 3.45648425 -31.8515625 3.40429688 C-35.90126817 3.27573028 -39.95066857 3.13983987 -44 3 C-44 2.67 -44 2.34 -44 2 C-42.51790039 1.970271 -42.51790039 1.970271 -41.00585938 1.93994141 C-37.30802747 1.86334395 -33.61056158 1.77471438 -29.91308594 1.68261719 C-28.3187589 1.64454948 -26.72435245 1.60965963 -25.12988281 1.578125 C-22.8258849 1.53198737 -20.52242334 1.47407935 -18.21875 1.4140625 C-17.51633179 1.40251129 -16.81391357 1.39096008 -16.09020996 1.37905884 C-12.42949122 1.27210809 -9.15592629 0.86182964 -5.61132812 -0.08837891 C-2 -1 -2 -1 0 0 Z " fill="#F1DCDD" transform="translate(312,185)"/>
<path d="M0 0 C0.66 0 1.32 0 2 0 C3.66666667 2 5.33333333 4 7 6 C7.66 6 8.32 6 9 6 C9.99 7.485 9.99 7.485 11 9 C15.403606 7.66557394 18.14241507 5.30702993 21.44921875 2.2421875 C23 1 23 1 25 1 C25 1.66 25 2.32 25 3 C23.11864124 4.66541663 21.25205353 6.18130392 19.25 7.6875 C18.71117187 8.11611328 18.17234375 8.54472656 17.6171875 8.98632812 C13.65721048 11.98528633 13.65721048 11.98528633 10.90625 12.046875 C8.24604176 10.58594097 6.37094788 8.7285007 4.25 6.5625 C3.45078125 5.75941406 2.6515625 4.95632812 1.828125 4.12890625 C0 2 0 2 0 0 Z " fill="#56272B" transform="translate(705,89)"/>
<path d="M0 0 C4.04420651 1.77945087 7.46078487 4.39529673 11 7 C9.02 7.99 9.02 7.99 7 9 C6.01 8.34 5.02 7.68 4 7 C2.02 7.99 2.02 7.99 0 9 C-0.66 6.69 -1.32 4.38 -2 2 C-1.34 1.34 -0.68 0.68 0 0 Z " fill="#F3EEED" transform="translate(323,175)"/>
<path d="M0 0 C0.66 0.66 1.32 1.32 2 2 C-3.94 2.33 -9.88 2.66 -16 3 C-16.33 9.6 -16.66 16.2 -17 23 C-17.33 23 -17.66 23 -18 23 C-18.02887814 19.52085059 -18.04675687 16.04173169 -18.0625 12.5625 C-18.07087891 11.56927734 -18.07925781 10.57605469 -18.08789062 9.55273438 C-18.09111328 8.60849609 -18.09433594 7.66425781 -18.09765625 6.69140625 C-18.10289307 5.81685791 -18.10812988 4.94230957 -18.11352539 4.04125977 C-18 2 -18 2 -17 1 C-11.39771686 0.00703515 -5.67301307 -0.29857964 0 0 Z " fill="#4E191D" transform="translate(396,118)"/>
<path d="M0 0 C6.70028192 -0.11229523 13.37331682 -0.00954843 20.0625 0.375 C21.31160156 0.44460937 22.56070312 0.51421875 23.84765625 0.5859375 C27 1 27 1 30 3 C22.74 3 15.48 3 8 3 C8 2.34 8 1.68 8 1 C5.36 1.33 2.72 1.66 0 2 C0 1.34 0 0.68 0 0 Z " fill="#FDF7F5" transform="translate(256,187)"/>
<path d="M0 0 C5.32532834 2.13013134 6.53759273 3.97668918 9 9 C11.95494201 12.26598854 14.48707193 14.80686025 18.9375 15.375 C19.618125 15.25125 20.29875 15.1275 21 15 C21 15.66 21 16.32 21 17 C18.75390625 17.6953125 18.75390625 17.6953125 16 18 C13.90234375 16.7421875 13.90234375 16.7421875 11.9375 14.875 C11.25042969 14.22660156 10.56335938 13.57820313 9.85546875 12.91015625 C7.73037948 10.72243277 5.83996588 8.43138348 4 6 C3.2575 5.278125 2.515 4.55625 1.75 3.8125 C0 2 0 2 0 0 Z " fill="#562429" transform="translate(655,83)"/>
<path d="M0 0 C-0.33 0.66 -0.66 1.32 -1 2 C-4.31335518 2.90794026 -7.44118745 3.11973427 -10.86328125 3.09765625 C-12.19262695 3.09282227 -12.19262695 3.09282227 -13.54882812 3.08789062 C-14.46083984 3.07951172 -15.37285156 3.07113281 -16.3125 3.0625 C-17.24384766 3.05798828 -18.17519531 3.05347656 -19.13476562 3.04882812 C-21.42324373 3.03709234 -23.71158808 3.02067363 -26 3 C-18.89295289 -1.73803141 -8.22996071 -0.11609662 0 0 Z " fill="#5F2227" transform="translate(552,157)"/>
<path d="M0 0 C0.33 0 0.66 0 1 0 C1.29296875 6.0546875 1.29296875 6.0546875 1 8 C-2 10 -2 10 -4 10 C-4.33 11.32 -4.66 12.64 -5 14 C-5.66 14 -6.32 14 -7 14 C-6.43584703 8.07639384 -4.18653966 4.18653966 0 0 Z " fill="#F6F0F0" transform="translate(199,126)"/>
<path d="M0 0 C8.58 0 17.16 0 26 0 C26 0.33 26 0.66 26 1 C17.585 1.495 17.585 1.495 9 2 C9 2.33 9 2.66 9 3 C7.35 3 5.7 3 4 3 C3.67 4.32 3.34 5.64 3 7 C2.34 7 1.68 7 1 7 C0.67 4.69 0.34 2.38 0 0 Z " fill="#F9EEEE" transform="translate(588,187)"/>
<path d="M0 0 C0.886875 0.309375 1.77375 0.61875 2.6875 0.9375 C8.30877947 2.57510414 14.18552198 2.66774411 20 3 C20 3.33 20 3.66 20 4 C18.95199219 4.13277344 17.90398438 4.26554688 16.82421875 4.40234375 C15.44529222 4.58057235 14.06638707 4.75896641 12.6875 4.9375 C11.99720703 5.02451172 11.30691406 5.11152344 10.59570312 5.20117188 C7.59857712 5.59210135 4.87549881 6.0415004 2 7 C0 4 0 4 0 0 Z " fill="#FAF1EF" transform="translate(652,183)"/>
<path d="M0 0 C0.99 0.66 1.98 1.32 3 2 C3 2.66 3 3.32 3 4 C5.475 4.99 5.475 4.99 8 6 C6.68 6.99 5.36 7.98 4 9 C2.68 8.34 1.36 7.68 0 7 C0 6.34 0 5.68 0 5 C-0.66 5 -1.32 5 -2 5 C-2.33 5.66 -2.66 6.32 -3 7 C-3.99 6.34 -4.98 5.68 -6 5 C-4.02 3.35 -2.04 1.7 0 0 Z " fill="#F2F1ED" transform="translate(641,175)"/>
<path d="M0 0 C-0.33 0.99 -0.66 1.98 -1 3 C-5.07467725 4.48882438 -8.66541415 5.26270217 -13 5 C-13 5.66 -13 6.32 -13 7 C-14.98 7.33 -16.96 7.66 -19 8 C-19.33 7.01 -19.66 6.02 -20 5 C-17.23058394 4.16169027 -14.45964931 3.32917966 -11.6875 2.5 C-10.50897461 2.14228516 -10.50897461 2.14228516 -9.30664062 1.77734375 C-8.54931641 1.55175781 -7.79199219 1.32617188 -7.01171875 1.09375 C-6.31522217 0.88427734 -5.61872559 0.67480469 -4.90112305 0.45898438 C-3 0 -3 0 0 0 Z " fill="#632B32" transform="translate(208,207)"/>
<path d="M0 0 C3 2 3 2 3.46875 3.953125 C3.52640255 8.19058717 3.40837934 11.11328614 0.6875 14.5 C-2 17 -2 17 -5 18 C-5 16.35 -5 14.7 -5 13 C-4.360625 12.71125 -3.72125 12.4225 -3.0625 12.125 C-0.84793921 11.17176549 -0.84793921 11.17176549 0 9 C0.66 9 1.32 9 2 9 C2 7.02 2 5.04 2 3 C1.01 3 0.02 3 -1 3 C-0.67 2.01 -0.34 1.02 0 0 Z " fill="#F5F0F0" transform="translate(565,191)"/>
<path d="M0 0 C3 2 3 2 3.6875 4.125 C3.8421875 5.053125 3.8421875 5.053125 4 6 C5.32 6 6.64 6 8 6 C6.84414715 9.91211733 5.64465038 12.8745041 3 16 C2.690625 14.88625 2.38125 13.7725 2.0625 12.625 C1.17673517 9.2054845 1.17673517 9.2054845 0 7 C-0.04022391 4.6670134 -0.04320247 2.33293334 0 0 Z " fill="#742E36" transform="translate(72,146)"/>
<path d="M0 0 C0.66 0 1.32 0 2 0 C1.67 1.65 1.34 3.3 1 5 C0.34 5 -0.32 5 -1 5 C-1 6.65 -1 8.3 -1 10 C-1.639375 10.12375 -2.27875 10.2475 -2.9375 10.375 C-3.618125 10.58125 -4.29875 10.7875 -5 11 C-5.33 11.66 -5.66 12.32 -6 13 C-6.99 14.485 -6.99 14.485 -8 16 C-8.66 16 -9.32 16 -10 16 C-8.84414715 12.08788267 -7.64465038 9.1254959 -5 6 C-4.67 6.33 -4.34 6.66 -4 7 C-3.34 5.68 -2.68 4.36 -2 3 C-1.34 3 -0.68 3 0 3 C0 2.01 0 1.02 0 0 Z " fill="#713038" transform="translate(518,111)"/>
<path d="M0 0 C-2 2 -2 2 -7 3 C-6.67 9.6 -6.34 16.2 -6 23 C-9.53693601 15.92612798 -9.12600735 8.74245189 -9 1 C-5.52452927 -0.94566951 -3.87493656 -1.07637127 0 0 Z " fill="#FAEDEE" transform="translate(744,105)"/>
<path d="M0 0 C0 0.33 0 0.66 0 1 C-1.23363281 1.16435547 -1.23363281 1.16435547 -2.4921875 1.33203125 C-8.80520005 2.22868315 -14.8118998 3.34181562 -20.87890625 5.31640625 C-22.9045671 5.96924354 -24.93027816 6.50720909 -27 7 C-20.3545361 -1.37906318 -9.70682539 -0.37280837 0 0 Z " fill="#561D20" transform="translate(221,96)"/>
<path d="M0 0 C-1.32 0.33 -2.64 0.66 -4 1 C-4 1.99 -4 2.98 -4 4 C-6.31 4.33 -8.62 4.66 -11 5 C-10.67 7.31 -10.34 9.62 -10 12 C-10.66 11.67 -11.32 11.34 -12 11 C-12.43367688 5.70914202 -12.43367688 5.70914202 -12 3 C-8.27182765 -0.21037063 -4.67126902 -1.55708967 0 0 Z " fill="#5D252B" transform="translate(35,215)"/>
<path d="M0 0 C0.99 0 1.98 0 3 0 C1.81056174 5.35247216 0.39420305 9.48463756 -4 13 C-6.75 13.75 -6.75 13.75 -9 14 C-8.566875 13.52949219 -8.13375 13.05898437 -7.6875 12.57421875 C-7.130625 11.95160156 -6.57375 11.32898438 -6 10.6875 C-5.1646875 9.76517578 -5.1646875 9.76517578 -4.3125 8.82421875 C-2.70798502 6.96868665 -2.70798502 6.96868665 -3 4 C-1.6875 1.8125 -1.6875 1.8125 0 0 Z " fill="#752F37" transform="translate(226,190)"/>
<path d="M0 0 C2.31 0.66 4.62 1.32 7 2 C4.31158141 4.25245881 2.35358125 5.88213958 -1 7 C-0.67 7.66 -0.34 8.32 0 9 C-2.31 8.67 -4.62 8.34 -7 8 C-6.01 7.67 -5.02 7.34 -4 7 C-4 6.34 -4 5.68 -4 5 C-2.68733482 3.64631404 -1.35432675 2.31200404 0 1 C0 0.67 0 0.34 0 0 Z " fill="#742E36" transform="translate(628,176)"/>
<path d="M0 0 C0.33 0.99 0.66 1.98 1 3 C1.8971875 2.6596875 1.8971875 2.6596875 2.8125 2.3125 C3.8953125 2.1578125 3.8953125 2.1578125 5 2 C6.75 3.4375 6.75 3.4375 8 5 C6.35 6.32 4.7 7.64 3 9 C1.68 8.01 0.36 7.02 -1 6 C-0.67 4.02 -0.34 2.04 0 0 Z " fill="#FAFBFA" transform="translate(685,65)"/>
<path d="M0 0 C0.26554688 0.58523437 0.53109375 1.17046875 0.8046875 1.7734375 C2.3909981 4.7283298 4.50815875 6.94913088 6.7578125 9.4140625 C8 11 8 11 8 13 C8.66 13 9.32 13 10 13 C11.625 15.5 11.625 15.5 13 18 C12.01 18 11.02 18 10 18 C7.99214527 15.77134014 6.17883009 13.57146815 4.375 11.1875 C3.87226562 10.54490234 3.36953125 9.90230469 2.8515625 9.24023438 C0.7032653 6.45380051 -0.87552765 4.37341706 -2 1 C-1.34 0.67 -0.68 0.34 0 0 Z " fill="#542127" transform="translate(678,44)"/>
<path d="M0 0 C1.32 0.33 2.64 0.66 4 1 C3.01 1.495 3.01 1.495 2 2 C-0.41230371 3.98098541 -0.41230371 3.98098541 -0.3125 7.8125 C-0.14054474 11.25797396 0.32307704 14.61538521 1 18 C0.34 18 -0.32 18 -1 18 C-2.26305335 12.92523206 -3.27036084 8.27203646 -3 3 C-2.01 2.67 -1.02 2.34 0 2 C0 1.34 0 0.68 0 0 Z " fill="#EFDFE0" transform="translate(24,214)"/>
<path d="M0 0 C0 0.99 0 1.98 0 3 C-0.99 3.66 -1.98 4.32 -3 5 C-3.33 5.66 -3.66 6.32 -4 7 C-4.53109375 6.68289062 -5.0621875 6.36578125 -5.609375 6.0390625 C-8.54535848 4.7629651 -11.06174329 4.58292979 -14.25 4.375 C-15.32765625 4.30023438 -16.4053125 4.22546875 -17.515625 4.1484375 C-18.74539063 4.07496094 -18.74539063 4.07496094 -20 4 C-20 3.67 -20 3.34 -20 3 C-18.86820312 2.86722656 -17.73640625 2.73445312 -16.5703125 2.59765625 C-15.08851821 2.4194658 -13.60674864 2.24106971 -12.125 2.0625 C-11.00544922 1.93198242 -11.00544922 1.93198242 -9.86328125 1.79882812 C-6.51424787 1.39151325 -3.23058195 0 0 0 Z " fill="#F5EAEC" transform="translate(436,184)"/>
<path d="M0 0 C6.4 -0.36923077 6.4 -0.36923077 9.4375 1.5 C9.953125 1.995 10.46875 2.49 11 3 C6.545 3.495 6.545 3.495 2 4 C1.67 9.28 1.34 14.56 1 20 C0.67 20 0.34 20 0 20 C0 13.33333333 0 6.66666667 0 0 Z " fill="#F6E8E8" transform="translate(377,116)"/>
<path d="M0 0 C-0.66 0 -1.32 0 -2 0 C-2 0.66 -2 1.32 -2 2 C-3.53125 3.2890625 -3.53125 3.2890625 -5.5 4.625 C-6.1496875 5.07101563 -6.799375 5.51703125 -7.46875 5.9765625 C-7.9740625 6.31429687 -8.479375 6.65203125 -9 7 C-9.66 5.02 -10.32 3.04 -11 1 C-3.57142857 -1.42857143 -3.57142857 -1.42857143 0 0 Z " fill="#F2EBEB" transform="translate(531,97)"/>
<path d="M0 0 C0.99 0 1.98 0 3 0 C3.33 0.99 3.66 1.98 4 3 C4 2.34 4 1.68 4 1 C6.97 1.495 6.97 1.495 10 2 C9.67 3.32 9.34 4.64 9 6 C5.37 6 1.74 6 -2 6 C-2 3 -2 3 0 1 C0 0.67 0 0.34 0 0 Z " fill="#733135" transform="translate(545,89)"/>
<path d="M0 0 C0.33 0 0.66 0 1 0 C1.50068405 6.75923474 0.19036621 11.99272183 -3 18 C-4.63671875 19.79296875 -4.63671875 19.79296875 -6 21 C-5.566875 19.7625 -5.13375 18.525 -4.6875 17.25 C-2.78947104 11.58302782 -1.38609152 5.80978785 0 0 Z " fill="#531E22" transform="translate(762,152)"/>
<path d="M0 0 C0 1.32 0 2.64 0 4 C-1.32 4 -2.64 4 -4 4 C-4 4.66 -4 5.32 -4 6 C-5.32 6 -6.64 6 -8 6 C-8.33 6.66 -8.66 7.32 -9 8 C-9 6.02 -9 4.04 -9 2 C-5.62902617 0.50178941 -3.79557881 0 0 0 Z " fill="#592028" transform="translate(746,106)"/>
<path d="M0 0 C3 0 3 0 5 1.75 C7 4 7 4 8.625 6.1875 C9.88609945 8.12733826 9.88609945 8.12733826 12 9 C11.67 9.66 11.34 10.32 11 11 C10.01 11 9.02 11 8 11 C6.3125 8.5 6.3125 8.5 5 6 C4.34 6.66 3.68 7.32 3 8 C3 6.35 3 4.7 3 3 C2.01 2.67 1.02 2.34 0 2 C0 1.34 0 0.68 0 0 Z " fill="#77323C" transform="translate(575,100)"/>
<path d="M0 0 C4.79951069 0.89661189 7.68075034 3.54478108 11 7 C13 10.1875 13 10.1875 14 13 C13.67 13.99 13.34 14.98 13 16 C12.52949219 15.21753906 12.05898438 14.43507813 11.57421875 13.62890625 C10.95160156 12.61699219 10.32898438 11.60507813 9.6875 10.5625 C8.76517578 9.04849609 8.76517578 9.04849609 7.82421875 7.50390625 C6.17948035 4.73729397 6.17948035 4.73729397 3 4 C1.3125 1.9375 1.3125 1.9375 0 0 Z " fill="#562228" transform="translate(571,93)"/>
<path d="M0 0 C1.3442623 5.37704918 1.3442623 5.37704918 -0.3125 8.375 C-2 10 -2 10 -4 10 C-4 7.03 -4 4.06 -4 1 C-2 0 -2 0 0 0 Z " fill="#632428" transform="translate(697,168)"/>
<path d="M0 0 C2.3125 -0.3125 2.3125 -0.3125 5 0 C6.875 2.25 6.875 2.25 8 5 C7.6875 7.3125 7.6875 7.3125 7 9 C3.17475764 7.549046 1.80909034 5.61818068 0 2 C0 1.34 0 0.68 0 0 Z " fill="#602027" transform="translate(172,165)"/>
<path d="M0 0 C0.99 0.33 1.98 0.66 3 1 C0.6216056 4.02378786 -0.50133684 4.93205283 -4.3828125 5.4609375 C-6.23519531 5.41839844 -6.23519531 5.41839844 -8.125 5.375 C-9.36507812 5.36210937 -10.60515625 5.34921875 -11.8828125 5.3359375 C-15 5 -15 5 -17 3 C-13.28363799 2.23983504 -10.61877928 1.83265185 -7 3 C-5.33480481 3.34060811 -3.66842534 3.67558396 -2 4 C-2 3.01 -2 2.02 -2 1 C-1.34 0.67 -0.68 0.34 0 0 Z " fill="#EEE0DE" transform="translate(677,152)"/>
<path d="M0 0 C0.33 0.66 0.66 1.32 1 2 C4.3 2 7.6 2 11 2 C11 2.33 11 2.66 11 3 C9.865625 3.12375 8.73125 3.2475 7.5625 3.375 C5.7990625 3.684375 5.7990625 3.684375 4 4 C2.5192152 6.9615696 2.64685963 9.83506295 2.4375 13.125 C2.35371094 14.40632812 2.26992188 15.68765625 2.18359375 17.0078125 C2.09271484 18.48894531 2.09271484 18.48894531 2 20 C1.67 20 1.34 20 1 20 C0.67 13.4 0.34 6.8 0 0 Z " fill="#EDD8D8" transform="translate(312,116)"/>
<path d="M0 0 C1.65 0 3.3 0 5 0 C4.01 0.33 3.02 0.66 2 1 C2.27714844 1.88042969 2.55429688 2.76085937 2.83984375 3.66796875 C3.20207031 4.82941406 3.56429687 5.99085938 3.9375 7.1875 C4.29714844 8.33605469 4.65679687 9.48460937 5.02734375 10.66796875 C5.83756036 13.44353006 6.49134307 16.15687548 7 19 C4.70891385 16.15747764 3.17367113 13.44717456 1.8125 10.0625 C1.46832031 9.22847656 1.12414062 8.39445313 0.76953125 7.53515625 C-0.0345012 4.88633868 -0.1427234 2.75111666 0 0 Z " fill="#541D24" transform="translate(165,219)"/>
<path d="M0 0 C1.38592445 2.27022699 2.03309948 3.56594541 1.828125 6.25390625 C1.63734375 7.01574219 1.4465625 7.77757812 1.25 8.5625 C1.06953125 9.32691406 0.8890625 10.09132812 0.703125 10.87890625 C0 13 0 13 -2 16 C-2.66 16 -3.32 16 -4 16 C-2.84941444 10.60204011 -1.57578241 5.29012667 0 0 Z " fill="#EEE3E0" transform="translate(97,182)"/>
<path d="M0 0 C1.125 1.75 1.125 1.75 2 4 C1.34 5.32 0.68 6.64 0 8 C-2.97 8 -5.94 8 -9 8 C-6.31158141 5.74754119 -4.35358125 4.11786042 -1 3 C-0.67 2.01 -0.34 1.02 0 0 Z " fill="#EAE0DE" transform="translate(754,176)"/>
<path d="M0 0 C0.33 0.66 0.66 1.32 1 2 C2.32 2 3.64 2 5 2 C4.67 2.99 4.34 3.98 4 5 C-1.93024803 5.97040422 -7.06390334 5.89316269 -13 5 C-13 4.67 -13 4.34 -13 4 C-7.06 3.505 -7.06 3.505 -1 3 C-0.67 2.01 -0.34 1.02 0 0 Z " fill="#784348" transform="translate(736,153)"/>
<path d="M0 0 C0.70125 0.2475 1.4025 0.495 2.125 0.75 C1.795 1.41 1.465 2.07 1.125 2.75 C-1.4375 3.375 -1.4375 3.375 -3.875 3.75 C-4.205 4.74 -4.535 5.73 -4.875 6.75 C-6.49832967 8.13576923 -8.16224465 9.47641268 -9.875 10.75 C-10.535 10.42 -11.195 10.09 -11.875 9.75 C-11.38 9.13125 -10.885 8.5125 -10.375 7.875 C-8.68277227 5.91119096 -8.68277227 5.91119096 -8.875 3.75 C-3.85592031 -0.33529742 -3.85592031 -0.33529742 0 0 Z " fill="#71343B" transform="translate(537.875,93.25)"/>
<path d="M0 0 C0 0.99 0 1.98 0 3 C-6.05073431 8.63818425 -6.05073431 8.63818425 -10 10 C-10.99 9.67 -11.98 9.34 -13 9 C-11.02 8.01 -9.04 7.02 -7 6 C-7.66 5.34 -8.32 4.68 -9 4 C-8.43410156 3.79503906 -7.86820312 3.59007812 -7.28515625 3.37890625 C-6.55167969 3.10949219 -5.81820313 2.84007812 -5.0625 2.5625 C-4.33160156 2.29566406 -3.60070312 2.02882812 -2.84765625 1.75390625 C-1.01694322 1.14613052 -1.01694322 1.14613052 0 0 Z " fill="#551F23" transform="translate(322,174)"/>
<path d="M0 0 C1.32554118 3.97662354 0.34765994 6.09887911 -1 10 C-1.66 10.66 -2.32 11.32 -3 12 C-3.99 11.67 -4.98 11.34 -6 11 C-6 9.66666667 -6 8.33333333 -6 7 C-5.01 6.67 -4.02 6.34 -3 6 C-3 5.01 -3 4.02 -3 3 C-1.5 1.3125 -1.5 1.3125 0 0 Z " fill="#732C36" transform="translate(758,163)"/>
<path d="M0 0 C0.33 3.63 0.66 7.26 1 11 C-1.33333333 8.66666667 -3.66666667 6.33333333 -6 4 C-2.25 0 -2.25 0 0 0 Z " fill="#713439" transform="translate(682,40)"/>
<path d="M0 0 C0.33 0 0.66 0 1 0 C1.33 5.61 1.66 11.22 2 17 C1.67 16.34 1.34 15.68 1 15 C0.34 15 -0.32 15 -1 15 C-1.22211116 13.06403108 -1.42722992 11.12610672 -1.625 9.1875 C-1.74101563 8.10855469 -1.85703125 7.02960938 -1.9765625 5.91796875 C-2 3 -2 3 0 0 Z " fill="#772F37" transform="translate(96,165)"/>
<path d="M0 0 C0.66 0.66 1.32 1.32 2 2 C-0.65654657 5.73884332 -2.58110387 7.64978174 -7 9 C-7 7.68 -7 6.36 -7 5 C-5.68 5 -4.36 5 -3 5 C-2.814375 4.0409375 -2.814375 4.0409375 -2.625 3.0625 C-2.41875 2.381875 -2.2125 1.70125 -2 1 C-1.34 0.67 -0.68 0.34 0 0 Z " fill="#F2EAE7" transform="translate(627,147)"/>
<path d="M0 0 C0.33 0 0.66 0 1 0 C1.19532961 1.7699868 1.38098882 3.54104279 1.5625 5.3125 C1.66691406 6.29863281 1.77132812 7.28476563 1.87890625 8.30078125 C2 11 2 11 1 14 C0.01 14 -0.98 14 -2 14 C-1.03644647 4.58997722 -1.03644647 4.58997722 0 0 Z " fill="#E6DBD9" transform="translate(527,144)"/>
<path d="M0 0 C1.258125 -0.020625 2.51625 -0.04125 3.8125 -0.0625 C4.52019531 -0.07410156 5.22789062 -0.08570312 5.95703125 -0.09765625 C8 0 8 0 11 1 C11 1.66 11 2.32 11 3 C9.68 3 8.36 3 7 3 C7.99 3.99 8.98 4.98 10 6 C7.69 6 5.38 6 3 6 C2.67 5.34 2.34 4.68 2 4 C2.66 4 3.32 4 4 4 C4 3.34 4 2.68 4 2 C2.68 1.34 1.36 0.68 0 0 Z " fill="#5E1F23" transform="translate(558,89)"/>
<path d="M0 0 C2.31 1.65 4.62 3.3 7 5 C6.01 5.495 6.01 5.495 5 6 C4.67 6.66 4.34 7.32 4 8 C4 7.34 4 6.68 4 6 C2.02 6 0.04 6 -2 6 C-2.33 4.68 -2.66 3.36 -3 2 C-2.01 1.34 -1.02 0.68 0 0 Z " fill="#F4EFEC" transform="translate(688,62)"/>
<path d="M0 0 C0 3 0 3 -1.53125 4.60546875 C-2.1809375 5.12753906 -2.830625 5.64960937 -3.5 6.1875 C-4.1496875 6.71730469 -4.799375 7.24710938 -5.46875 7.79296875 C-5.9740625 8.19128906 -6.479375 8.58960937 -7 9 C-8.32 8.34 -9.64 7.68 -11 7 C-10.38125 6.7525 -9.7625 6.505 -9.125 6.25 C-6.64931313 4.79371361 -6.04874998 3.62187494 -5 1 C-5 1.99 -5 2.98 -5 4 C-3.35 2.68 -1.7 1.36 0 0 Z " fill="#732E35" transform="translate(700,56)"/>
<path d="M0 0 C2 1 2 1 3 2 C3 2.66 3 3.32 3 4 C-2.94 4 -8.88 4 -15 4 C-15 3.67 -15 3.34 -15 3 C-13.75283203 2.80083984 -13.75283203 2.80083984 -12.48046875 2.59765625 C-11.39378906 2.42105469 -10.30710937 2.24445313 -9.1875 2.0625 C-8.10855469 1.88847656 -7.02960937 1.71445313 -5.91796875 1.53515625 C-2.95066644 1.06128079 -2.95066644 1.06128079 0 0 Z " fill="#E7DCD9" transform="translate(45,240)"/>
<path d="M0 0 C0.33 0 0.66 0 1 0 C1.34615998 5.65394631 0.43425238 9.03006806 -2 14 C-3.98 14 -5.96 14 -8 14 C-7.59007812 13.57589844 -7.18015625 13.15179688 -6.7578125 12.71484375 C-2.96922332 8.59090098 -1.12091066 5.49246223 0 0 Z " fill="#5D262C" transform="translate(569,195)"/>
<path d="M0 0 C0.66 0.33 1.32 0.66 2 1 C-1.10435114 5.13913486 -4.31776615 8.65888308 -9 11 C-9.66 10.67 -10.32 10.34 -11 10 C-11 9.34 -11 8.68 -11 8 C-9.1015625 6.5625 -9.1015625 6.5625 -6.625 5 C-4.15047838 3.42887516 -2.07616959 2.07616959 0 0 Z " fill="#5A2427" transform="translate(222,196)"/>
<path d="M0 0 C0.99 0.495 0.99 0.495 2 1 C2 1.66 2 2.32 2 3 C2.85851562 3.41378906 2.85851562 3.41378906 3.734375 3.8359375 C5.98964267 4.99467848 8.10856378 6.26875706 10.25 7.625 C10.95640625 8.07101563 11.6628125 8.51703125 12.390625 8.9765625 C12.92171875 9.31429687 13.4528125 9.65203125 14 10 C11 11 11 11 7.5625 9.3125 C4.64231586 7.51831907 2.17022649 5.69108085 0 3 C0 2.01 0 1.02 0 0 Z " fill="#59252A" transform="translate(699,173)"/>
<path d="M0 0 C0.639375 0.268125 1.27875 0.53625 1.9375 0.8125 C7.49585648 2.96778108 13.09526442 5.04762329 19 6 C19 6.33 19 6.66 19 7 C12.3687091 7.49120673 6.81393319 6.38862772 1 3 C0.67 2.01 0.34 1.02 0 0 Z " fill="#512124" transform="translate(184,178)"/>
<path d="M0 0 C-1.49895671 3.81552617 -3.7986856 5.53745046 -7 8 C-7.33 8.66 -7.66 9.32 -8 10 C-8.66 10 -9.32 10 -10 10 C-9.41978222 6.7451198 -8.47352859 5.06347592 -6.125 2.75 C-5.61195313 2.22921875 -5.09890625 1.7084375 -4.5703125 1.171875 C-3 0 -3 0 0 0 Z " fill="#5E272C" transform="translate(664,71)"/>
<path d="M0 0 C1.14926266 0.95421808 2.29430541 1.91352045 3.4375 2.875 C4.07558594 3.40867187 4.71367188 3.94234375 5.37109375 4.4921875 C7 6 7 6 8 8 C7.01 8 6.02 8 5 8 C5.33 8.99 5.66 9.98 6 11 C5.01 11.33 4.02 11.66 3 12 C1 9 1 9 1 6 C1.66 5.67 2.32 5.34 3 5 C2.2575 4.319375 2.2575 4.319375 1.5 3.625 C0 2 0 2 0 0 Z " fill="#5F2226" transform="translate(719,66)"/>
<path d="M0 0 C0.75 1.625 0.75 1.625 1 4 C-0.9375 7.25 -0.9375 7.25 -3 10 C-3.66 9.67 -4.32 9.34 -5 9 C-5 7.33333333 -5 5.66666667 -5 4 C-2.5 1.8125 -2.5 1.8125 0 0 Z " fill="#5D2227" transform="translate(587,212)"/>
<path d="M0 0 C-2.55022856 2.97526665 -5.40293526 4.50122302 -9 6 C-9.99 5.67 -10.98 5.34 -12 5 C-12 4.34 -12 3.68 -12 3 C-4.71428571 -0.42857143 -4.71428571 -0.42857143 0 0 Z " fill="#F0EAE6" transform="translate(216,201)"/>
<path d="M0 0 C0.99 0 1.98 0 3 0 C4.84107529 3.97284668 5.14084463 5.54781461 3.8125 9.8125 C2 13 2 13 -1 14 C-0.34 11.36 0.32 8.72 1 6 C0.67 6 0.34 6 0 6 C0 4.02 0 2.04 0 0 Z " fill="#77343B" transform="translate(568,194)"/>
<path d="M0 0 C2 3 2 3 3 5 C4.32 5 5.64 5 7 5 C6.34 6.65 5.68 8.3 5 10 C3.68 10 2.36 10 1 10 C-0.60725635 6.78548731 -0.05748185 3.56387464 0 0 Z " fill="#5F1E23" transform="translate(504,184)"/>
<path d="M0 0 C0.33 0.66 0.66 1.32 1 2 C1.66 2 2.32 2 3 2 C3.33 1.34 3.66 0.68 4 0 C4.33 1.32 4.66 2.64 5 4 C4.236875 4.28875 3.47375 4.5775 2.6875 4.875 C-0.15029308 5.96269013 -0.15029308 5.96269013 -3 8 C-2.74438677 5.6568787 -2.40729228 3.32156597 -2 1 C-1.34 0.67 -0.68 0.34 0 0 Z " fill="#6E3236" transform="translate(448,171)"/>
<path d="M0 0 C1.0326802 2.78823655 1.04509293 3.8677274 0.0625 6.75 C-0.288125 7.4925 -0.63875 8.235 -1 9 C-2.32 8.67 -3.64 8.34 -5 8 C-4.649375 7.21625 -4.29875 6.4325 -3.9375 5.625 C-3.628125 4.75875 -3.31875 3.8925 -3 3 C-3.33 2.34 -3.66 1.68 -4 1 C-2.68 0.67 -1.36 0.34 0 0 Z " fill="#763036" transform="translate(182,167)"/>
<path d="M0 0 C-1.14932117 3.4479635 -1.98529269 3.96767838 -4.875 6 C-7.48077725 7.84615953 -9.80241115 9.67801932 -12 12 C-11.42541562 8.43442842 -10.14644352 6.78900304 -7.5625 4.3125 C-6.94503906 3.71050781 -6.32757813 3.10851562 -5.69140625 2.48828125 C-3.71351943 0.74792356 -2.65837556 0 0 0 Z " fill="#592027" transform="translate(191,104)"/>
<path d="M0 0 C3.33333333 1.66666667 6.66666667 3.33333333 10 5 C8.3125 6.125 8.3125 6.125 6 7 C2.51697183 6.06552903 0.34904769 4.71994995 -2 2 C-1.34 1.34 -0.68 0.68 0 0 Z " fill="#72333B" transform="translate(646,176)"/>
<path d="M0 0 C0.56654297 0.63228516 0.56654297 0.63228516 1.14453125 1.27734375 C6.30792556 6.41655355 10.86618426 6.97419958 18 7 C18 7.33 18 7.66 18 8 C15.93867858 8.10864945 13.87568679 8.18588321 11.8125 8.25 C10.08966797 8.31960937 10.08966797 8.31960937 8.33203125 8.390625 C4.33157683 7.92163855 2.72324882 6.9335185 0 4 C0 2.68 0 1.36 0 0 Z " fill="#6A353C" transform="translate(655,150)"/>
<path d="M0 0 C1.25 1.5625 1.25 1.5625 2 4 C0.93237266 6.57001015 -0.46544943 8.6530403 -2 11 C-3.42944945 8.64561267 -4.08661261 7.51967567 -3.625 4.75 C-3.41875 4.1725 -3.2125 3.595 -3 3 C-2.34 3 -1.68 3 -1 3 C-0.67 2.01 -0.34 1.02 0 0 Z " fill="#F6F4F0" transform="translate(177,109)"/>
<path d="M0 0 C-3.41016497 2.86453858 -6.90694544 4.34703566 -11 6 C-11.33 4.68 -11.66 3.36 -12 2 C-7.8794254 0.00214565 -4.54805635 -0.17835515 0 0 Z " fill="#F0E6E4" transform="translate(200,98)"/>
<path d="M0 0 C0.99 0.495 0.99 0.495 2 1 C2 1.66 2 2.32 2 3 C2.99 3.33 3.98 3.66 5 4 C6.38671875 5.62890625 6.38671875 5.62890625 7.6875 7.5625 C8.12449219 8.20316406 8.56148437 8.84382813 9.01171875 9.50390625 C9.50091797 10.24447266 9.50091797 10.24447266 10 11 C9.01 11.33 8.02 11.66 7 12 C3.66488612 9.0098979 1.78478881 6.10501426 0 2 C0 1.34 0 0.68 0 0 Z " fill="#EADDDC" transform="translate(655,85)"/>
<path d="M0 0 C0.33 0.66 0.66 1.32 1 2 C-0.15648724 4.98759205 -1.67310583 6.84546836 -4 9 C-4.886875 9.886875 -5.77375 10.77375 -6.6875 11.6875 C-7.450625 12.450625 -8.21375 13.21375 -9 14 C-9.66 13.34 -10.32 12.68 -11 12 C-10.37351563 11.38511719 -9.74703125 10.77023438 -9.1015625 10.13671875 C-8.28429687 9.32847656 -7.46703125 8.52023438 -6.625 7.6875 C-5.40683594 6.48673828 -5.40683594 6.48673828 -4.1640625 5.26171875 C-1.87395158 2.99990063 -1.87395158 2.99990063 0 0 Z " fill="#EFE0E0" transform="translate(245,210)"/>
<path d="M0 0 C0.66 0 1.32 0 2 0 C1.4520917 4.2829452 -0.02432804 6.85135641 -2.5625 10.3125 C-3.20316406 11.19550781 -3.84382813 12.07851562 -4.50390625 12.98828125 C-4.99761719 13.65214844 -5.49132812 14.31601563 -6 15 C-6 11.30932235 -4.79367173 9.75664691 -2.875 6.71875 C-1.77315848 4.87586165 -1.77315848 4.87586165 -2 2 C-1.34 2 -0.68 2 0 2 C0 1.34 0 0.68 0 0 Z " fill="#581E25" transform="translate(90,197)"/>
<path d="M0 0 C0.33 0 0.66 0 1 0 C1.12117187 0.71027344 1.24234375 1.42054688 1.3671875 2.15234375 C1.53476562 3.07144531 1.70234375 3.99054688 1.875 4.9375 C2.03742187 5.85402344 2.19984375 6.77054688 2.3671875 7.71484375 C2.57601562 8.46894531 2.78484375 9.22304687 3 10 C3.66 10.33 4.32 10.66 5 11 C5 12.98 5 14.96 5 17 C1.86779571 14.4372874 0.95439383 11.89099023 0 8 C-0.15041492 5.30708781 -0.09314515 2.70120925 0 0 Z " fill="#EEE2E1" transform="translate(710,136)"/>
<path d="M0 0 C0.66 0.33 1.32 0.66 2 1 C1.67 2.32 1.34 3.64 1 5 C0.34 5 -0.32 5 -1 5 C-1 5.66 -1 6.32 -1 7 C-2.65 7.33 -4.3 7.66 -6 8 C-4.26440562 4.942048 -2.61527381 2.36620011 0 0 Z " fill="#E8DCDB" transform="translate(538,120)"/>
<path d="M0 0 C-0.66 0 -1.32 0 -2 0 C-2 1.98 -2 3.96 -2 6 C-2.99 6 -3.98 6 -5 6 C-5 5.34 -5 4.68 -5 4 C-6.45833358 2.37485532 -6.45833358 2.37485532 -8 1 C-4.93251126 -0.86240388 -3.40254489 -1.2151946 0 0 Z " fill="#602329" transform="translate(755,104)"/>
<path d="M0 0 C0.66 0.33 1.32 0.66 2 1 C0.71451591 2.33929505 -0.57858155 3.67128643 -1.875 5 C-2.59429688 5.7425 -3.31359375 6.485 -4.0546875 7.25 C-6 9 -6 9 -8 9 C-8 8.34 -8 7.68 -8 7 C-8.66 7 -9.32 7 -10 7 C-10 6.34 -10 5.68 -10 5 C-8.906875 4.731875 -7.81375 4.46375 -6.6875 4.1875 C-3.38307337 3.12336261 -2.05039578 2.65345336 0 0 Z " fill="#591E25" transform="translate(685,88)"/>
<path d="M0 0 C1.32 0.66 2.64 1.32 4 2 C4 2.66 4 3.32 4 4 C2.46875 5.2890625 2.46875 5.2890625 0.5 6.625 C-0.1496875 7.07101563 -0.799375 7.51703125 -1.46875 7.9765625 C-1.9740625 8.31429687 -2.479375 8.65203125 -3 9 C-2.5020163 5.26512223 -2.12508244 3.18762365 0 0 Z " fill="#EEE9E6" transform="translate(714,59)"/>
<path d="M0 0 C0.66 0.33 1.32 0.66 2 1 C1.38511719 1.68835937 1.38511719 1.68835937 0.7578125 2.390625 C0.21898437 3.00421875 -0.31984375 3.6178125 -0.875 4.25 C-1.40867187 4.85328125 -1.94234375 5.4565625 -2.4921875 6.078125 C-4.07518792 7.94885956 -4.07518792 7.94885956 -5.03125 10.1875 C-5.3509375 10.785625 -5.670625 11.38375 -6 12 C-8.625 12.75 -8.625 12.75 -11 13 C-10.62488281 12.56429687 -10.24976563 12.12859375 -9.86328125 11.6796875 C-6.54140223 7.81392401 -3.25357073 3.92342352 0 0 Z " fill="#E6D7D6" transform="translate(709,50)"/>
<path d="M0 0 C0.33 0 0.66 0 1 0 C1.33 5.28 1.66 10.56 2 16 C1.34 16.33 0.68 16.66 0 17 C-0.66 16.34 -1.32 15.68 -2 15 C-1.73760976 13.32070245 -1.37966646 11.65672637 -1 10 C-0.61263537 6.67172232 -0.30452269 3.33679122 0 0 Z " fill="#F9EEED" transform="translate(167,144)"/>
<path d="M0 0 C0.66 0.33 1.32 0.66 2 1 C2 1.99 2 2.98 2 4 C-0.64 4.99 -3.28 5.98 -6 7 C-6 6.01 -6 5.02 -6 4 C-3 1.8125 -3 1.8125 0 0 Z " fill="#F0E8E5" transform="translate(231,224)"/>
<path d="M0 0 C0.99 0.33 1.98 0.66 3 1 C2.67 2.32 2.34 3.64 2 5 C2.99 5.33 3.98 5.66 5 6 C5 8.31 5 10.62 5 13 C1.42988974 9.267612 0.89086558 4.9050011 0 0 Z " fill="#F2E5E2" transform="translate(527,187)"/>
<path d="M0 0 C4.455 0.99 4.455 0.99 9 2 C8.67 2.99 8.34 3.98 8 5 C5.03 4.67 2.06 4.34 -1 4 C-0.67 2.68 -0.34 1.36 0 0 Z " fill="#F7EEEE" transform="translate(401,184)"/>
<path d="M0 0 C1.20628008 2.33214148 2.1654738 4.49642139 3 7 C-0.54950034 8.16306443 -3.55823948 7.92365049 -7.25 7.5625 C-8.32765625 7.46066406 -9.4053125 7.35882813 -10.515625 7.25390625 C-11.33546875 7.17011719 -12.1553125 7.08632812 -13 7 C-13 6.67 -13 6.34 -13 6 C-8.71 6 -4.42 6 0 6 C0 4.02 0 2.04 0 0 Z " fill="#753E44" transform="translate(501,152)"/>
<path d="M0 0 C1.55078125 1.671875 1.55078125 1.671875 3 4 C2.85546875 6.578125 2.85546875 6.578125 2.1875 9.25 C1.86845703 10.58804688 1.86845703 10.58804688 1.54296875 11.953125 C1.36378906 12.62859375 1.18460937 13.3040625 1 14 C0.67 14 0.34 14 0 14 C-0.66 10.04 -1.32 6.08 -2 2 C-1.34 2 -0.68 2 0 2 C0 1.34 0 0.68 0 0 Z " fill="#76363D" transform="translate(87,120)"/>
<path d="M0 0 C2.31 0.66 4.62 1.32 7 2 C4.94766315 4.2477975 3.99332739 5.0022242 1 6 C0.34 5.34 -0.32 4.68 -1 4 C-0.625 1.875 -0.625 1.875 0 0 Z " fill="#682F33" transform="translate(569,227)"/>
<path d="M0 0 C2.99332739 0.9977758 3.94766315 1.7522025 6 4 C2.66666667 4.66666667 -0.66666667 5.33333333 -4 6 C-3.67 5.01 -3.34 4.02 -3 3 C-2.34 3 -1.68 3 -1 3 C-0.67 2.01 -0.34 1.02 0 0 Z " fill="#692328" transform="translate(220,224)"/>
<path d="M0 0 C0 0.66 0 1.32 0 2 C-5.36000789 4.25684543 -9.1977825 5.36263859 -15 5 C-12.18459435 3.52159064 -9.39290564 2.37423966 -6.375 1.375 C-5.21097656 0.98441406 -5.21097656 0.98441406 -4.0234375 0.5859375 C-2 0 -2 0 0 0 Z " fill="#531820" transform="translate(689,180)"/>
<path d="M0 0 C0.66 0.33 1.32 0.66 2 1 C0.6875 3.5 0.6875 3.5 -1 6 C-1.99 6 -2.98 6 -4 6 C-4 6.66 -4 7.32 -4 8 C-5.98 8 -7.96 8 -10 8 C-9.195625 7.4121875 -9.195625 7.4121875 -8.375 6.8125 C-5.50791468 4.6244612 -2.76035432 2.32120704 0 0 Z " fill="#F0E3E3" transform="translate(697,175)"/>
<path d="M0 0 C0.90492188 0.02320312 1.80984375 0.04640625 2.7421875 0.0703125 C4.10730469 0.09738281 4.10730469 0.09738281 5.5 0.125 C6.19867187 0.14820312 6.89734375 0.17140625 7.6171875 0.1953125 C6.6271875 0.6903125 6.6271875 0.6903125 5.6171875 1.1953125 C5.6171875 1.8553125 5.6171875 2.5153125 5.6171875 3.1953125 C4.2971875 3.1953125 2.9771875 3.1953125 1.6171875 3.1953125 C1.2871875 2.8653125 0.9571875 2.5353125 0.6171875 2.1953125 C0.2871875 2.8553125 -0.0428125 3.5153125 -0.3828125 4.1953125 C-1.7028125 3.5353125 -3.0228125 2.8753125 -4.3828125 2.1953125 C-2.3828125 0.1953125 -2.3828125 0.1953125 0 0 Z " fill="#EBE2DF" transform="translate(548.3828125,115.8046875)"/>
<path d="M0 0 C5.94 0 11.88 0 18 0 C18 0.33 18 0.66 18 1 C12.39 1.66 6.78 2.32 1 3 C0.67 2.01 0.34 1.02 0 0 Z " fill="#521820" transform="translate(539,115)"/>
<path d="M0 0 C3.15207323 0.41113999 5.98104753 0.99368251 9 2 C6.03 4.475 6.03 4.475 3 7 C1.68 5.02 0.36 3.04 -1 1 C-0.67 0.67 -0.34 0.34 0 0 Z " fill="#F4F0ED" transform="translate(579,95)"/>
<path d="M0 0 C1 3 1 3 -0.3125 5.6875 C-0.869375 6.450625 -1.42625 7.21375 -2 8 C-2.66 8 -3.32 8 -4 8 C-4.33 8.99 -4.66 9.98 -5 11 C-5.68359375 9.234375 -5.68359375 9.234375 -6 7 C-4.78515625 5.078125 -4.78515625 5.078125 -3.0625 3.25 C-2.49660156 2.63640625 -1.93070312 2.0228125 -1.34765625 1.390625 C-0.90292969 0.93171875 -0.45820312 0.4728125 0 0 Z " fill="#E9DADA" transform="translate(85,210)"/>
<path d="M0 0 C0.33 1.32 0.66 2.64 1 4 C0.01 4 -0.98 4 -2 4 C-3.45034604 5.30456502 -3.45034604 5.30456502 -4.6875 7 C-5.450625 7.99 -6.21375 8.98 -7 10 C-7.33 9.01 -7.66 8.02 -8 7 C-6.85546875 5.17578125 -6.85546875 5.17578125 -5.1875 3.3125 C-4.37345703 2.37857422 -4.37345703 2.37857422 -3.54296875 1.42578125 C-2 0 -2 0 0 0 Z " fill="#5E272D" transform="translate(66,191)"/>
<path d="M0 0 C3.63 1.98 7.26 3.96 11 6 C10.34 6.66 9.68 7.32 9 8 C8.236875 7.505 7.47375 7.01 6.6875 6.5 C4.07636249 4.75631692 4.07636249 4.75631692 1 5 C0.67 3.35 0.34 1.7 0 0 Z " fill="#582028" transform="translate(193,151)"/>
<path d="M0 0 C0.33 0 0.66 0 1 0 C1.33 2.64 1.66 5.28 2 8 C0.02 8.99 0.02 8.99 -2 10 C-3 8 -3 8 -2.44140625 6.0546875 C-2.15136719 5.33539063 -1.86132812 4.61609375 -1.5625 3.875 C-1.27503906 3.15054688 -0.98757813 2.42609375 -0.69140625 1.6796875 C-0.46324219 1.12539062 -0.23507812 0.57109375 0 0 Z " fill="#5C292A" transform="translate(313,142)"/>
<path d="M0 0 C2.96175123 0.61277612 4.38058783 1.25372522 7 3 C7 3.66 7 4.32 7 5 C6.34 5 5.68 5 5 5 C4.67 5.66 4.34 6.32 4 7 C4 6.34 4 5.68 4 5 C1.03 4.505 1.03 4.505 -2 4 C-0.68 3.67 0.64 3.34 2 3 C2 2.34 2 1.68 2 1 C1.34 0.67 0.68 0.34 0 0 Z " fill="#76323A" transform="translate(744,105)"/>
<path d="M0 0 C4.21878192 -0.19622241 7.17010894 0.19769832 11 2 C11 2.66 11 3.32 11 4 C9.9275 3.835 8.855 3.67 7.75 3.5 C3.96971248 2.91189085 3.96971248 2.91189085 0 3 C0 2.01 0 1.02 0 0 Z " fill="#572224" transform="translate(222,97)"/>
<path d="M0 0 C0.66 0.33 1.32 0.66 2 1 C2.99 1 3.98 1 5 1 C4.67 2.32 4.34 3.64 4 5 C1.69 5 -0.62 5 -3 5 C-1.125 1.125 -1.125 1.125 0 0 Z " fill="#602127" transform="translate(689,31)"/>
<path d="M0 0 C2.625 0.375 2.625 0.375 5 1 C5.33 1.99 5.66 2.98 6 4 C4.02 4.33 2.04 4.66 0 5 C0 4.34 0 3.68 0 3 C-0.66 2.67 -1.32 2.34 -2 2 C-1.34 1.34 -0.68 0.68 0 0 Z " fill="#F4F0EF" transform="translate(185,208)"/>
<path d="M0 0 C0.33 1.32 0.66 2.64 1 4 C0.34 4 -0.32 4 -1 4 C-1 4.99 -1 5.98 -1 7 C-3.64 6.34 -6.28 5.68 -9 5 C-8.443125 4.731875 -7.88625 4.46375 -7.3125 4.1875 C-4.80287477 2.89877353 -2.40665764 1.47073522 0 0 Z " fill="#6E3B3F" transform="translate(554,152)"/>
<path d="M0 0 C1 3 1 3 0.22265625 5.04296875 C-0.16019531 5.75066406 -0.54304688 6.45835937 -0.9375 7.1875 C-1.31777344 7.90292969 -1.69804687 8.61835938 -2.08984375 9.35546875 C-2.54037109 10.16951172 -2.54037109 10.16951172 -3 11 C-3.66 10.01 -4.32 9.02 -5 8 C-4.67 7.01 -4.34 6.02 -4 5 C-3.34 5 -2.68 5 -2 5 C-1.7834375 4.0409375 -1.7834375 4.0409375 -1.5625 3.0625 C-1 1 -1 1 0 0 Z " fill="#EEE1E2" transform="translate(436,141)"/>
<path d="M0 0 C0.99 0.33 1.98 0.66 3 1 C1 5 -1 9 -3 13 C-2.52060632 8.28596212 -2.03165952 4.33420699 0 0 Z " fill="#5A2229" transform="translate(194,127)"/>
<path d="M0 0 C0.556875 0.226875 1.11375 0.45375 1.6875 0.6875 C0.382261 3.29797801 -0.67076574 3.36816423 -3.375 4.3125 C-4.10847656 4.57289062 -4.84195313 4.83328125 -5.59765625 5.1015625 C-6.16355469 5.29492188 -6.72945313 5.48828125 -7.3125 5.6875 C-7.3125 4.6975 -7.3125 3.7075 -7.3125 2.6875 C-3.28618421 -0.44407895 -3.28618421 -0.44407895 0 0 Z " fill="#E6DAD7" transform="translate(80.3125,114.3125)"/>
<path d="M0 0 C0.66 0.33 1.32 0.66 2 1 C1.67 1.66 1.34 2.32 1 3 C0.34 3 -0.32 3 -1 3 C-1 3.99 -1 4.98 -1 6 C-1.66 6 -2.32 6 -3 6 C-3.66 7.65 -4.32 9.3 -5 11 C-5.33 10.01 -5.66 9.02 -6 8 C-4.22557591 5.00183515 -2.46459429 2.46459429 0 0 Z " fill="#58222A" transform="translate(519,108)"/>
<path d="M0 0 C1.65 0.33 3.3 0.66 5 1 C3.35 2.98 1.7 4.96 0 7 C-0.66 5.68 -1.32 4.36 -2 3 C-1.34 2.01 -0.68 1.02 0 0 Z " fill="#672E34" transform="translate(74,217)"/>
<path d="M0 0 C1 4 1 4 0.0625 6.25 C-0.4634375 7.11625 -0.4634375 7.11625 -1 8 C-2.65 7.67 -4.3 7.34 -6 7 C-4.02 4.69 -2.04 2.38 0 0 Z " fill="#662F32" transform="translate(682,150)"/>
<path d="M0 0 C2 3 2 3 1.7578125 5.48046875 C1.54898438 6.37378906 1.34015625 7.26710937 1.125 8.1875 C0.92132812 9.08855469 0.71765625 9.98960937 0.5078125 10.91796875 C0.25644531 11.94857422 0.25644531 11.94857422 0 13 C-0.66 13 -1.32 13 -2 13 C-1.48041715 8.62065881 -0.94324258 4.31196609 0 0 Z " fill="#EBDCDC" transform="translate(530,131)"/>
<path d="M0 0 C-0.33 0.99 -0.66 1.98 -1 3 C-3.06640625 3.73046875 -3.06640625 3.73046875 -5.5625 4.1875 C-6.38878906 4.34605469 -7.21507812 4.50460938 -8.06640625 4.66796875 C-9.02353516 4.83232422 -9.02353516 4.83232422 -10 5 C-9.67 4.01 -9.34 3.02 -9 2 C-5.82757352 0.68964993 -3.44118336 0 0 0 Z " fill="#5A2226" transform="translate(208,207)"/>
<path d="M0 0 C3.96 0 7.92 0 12 0 C12 0.99 12 1.98 12 3 C10.68 3 9.36 3 8 3 C8 2.34 8 1.68 8 1 C5.36 1.33 2.72 1.66 0 2 C0 1.34 0 0.68 0 0 Z " fill="#F6ECEA" transform="translate(256,187)"/>
<path d="M0 0 C-1 3 -1 3 -4 5 C-7 4 -7 4 -10 2 C-8.7090864 1.66376204 -7.41723903 1.33110751 -6.125 1 C-5.40570312 0.814375 -4.68640625 0.62875 -3.9453125 0.4375 C-2 0 -2 0 0 0 Z " fill="#E9DBDC" transform="translate(686,183)"/>
<path d="M0 0 C0.66 0.33 1.32 0.66 2 1 C0.9375 3.4375 0.9375 3.4375 -1 6 C-4.6875 6.8125 -4.6875 6.8125 -8 7 C-7.236875 6.401875 -6.47375 5.80375 -5.6875 5.1875 C-3.6516425 3.53040668 -1.8021721 1.89702326 0 0 Z " fill="#EFE1E1" transform="translate(449,175)"/>
<path d="M0 0 C0.33 0 0.66 0 1 0 C1.33730842 1.43657245 1.66969591 2.87430093 2 4.3125 C2.185625 5.11300781 2.37125 5.91351563 2.5625 6.73828125 C3 9 3 9 3 12 C1.68 12 0.36 12 -1 12 C-1.08159574 7.83861737 -0.98248524 4.0527516 0 0 Z " fill="#683236" transform="translate(191,140)"/>
<path d="M0 0 C0.33 0 0.66 0 1 0 C1 2.97 1 5.94 1 9 C0.01 9.33 -0.98 9.66 -2 10 C-2.33 8.02 -2.66 6.04 -3 4 C-2.34 4 -1.68 4 -1 4 C-0.67 2.68 -0.34 1.36 0 0 Z " fill="#733036" transform="translate(505,142)"/>
<path d="M0 0 C0.99 0.33 1.98 0.66 3 1 C2.34 1 1.68 1 1 1 C1 3.97 1 6.94 1 10 C0.67 9.01 0.34 8.02 0 7 C-0.66 7 -1.32 7 -2 7 C-2 5.02 -2 3.04 -2 1 C-1.34 0.67 -0.68 0.34 0 0 Z " fill="#733037" transform="translate(634,125)"/>
<path d="M0 0 C1.93166016 0.01740234 1.93166016 0.01740234 3.90234375 0.03515625 C5.19269531 0.04417969 6.48304688 0.05320312 7.8125 0.0625 C8.81152344 0.07410156 9.81054688 0.08570312 10.83984375 0.09765625 C10.83984375 0.42765625 10.83984375 0.75765625 10.83984375 1.09765625 C9.59267578 1.13632813 9.59267578 1.13632813 8.3203125 1.17578125 C7.23363281 1.2325 6.14695312 1.28921875 5.02734375 1.34765625 C3.40892578 1.41726562 3.40892578 1.41726562 1.7578125 1.48828125 C-1.27759857 1.82719647 -1.27759857 1.82719647 -3.046875 4.14453125 C-3.41425781 4.7890625 -3.78164063 5.43359375 -4.16015625 6.09765625 C-4.20287725 4.4315372 -4.20079457 2.7638274 -4.16015625 1.09765625 C-3.16015625 0.09765625 -3.16015625 0.09765625 0 0 Z " fill="#4A0D13" transform="translate(319.16015625,118.90234375)"/>
<path d="M0 0 C0.99 0 1.98 0 3 0 C4.60355101 3.50776784 5.22036864 6.14354879 5 10 C4.34 10 3.68 10 3 10 C2.01 6.7 1.02 3.4 0 0 Z " fill="#57282C" transform="translate(756,102)"/>
<path d="M0 0 C-2.35953094 2.35953094 -3.77895617 2.49141413 -7 3 C-7 4.65 -7 6.3 -7 8 C-7.33 8 -7.66 8 -8 8 C-8.33 5.69 -8.66 3.38 -9 1 C-5.64919071 -1.10976881 -3.77897651 -1.0497157 0 0 Z " fill="#F0E2E1" transform="translate(744,105)"/>
<path d="M0 0 C0 0.99 0 1.98 0 3 C0.99 3.33 1.98 3.66 3 4 C2.01 4.495 2.01 4.495 1 5 C0.34 4.67 -0.32 4.34 -1 4 C-1.33 4.66 -1.66 5.32 -2 6 C-2.99 5.67 -3.98 5.34 -5 5 C-5 3.68 -5 2.36 -5 1 C-2 0 -2 0 0 0 Z " fill="#F6F2F1" transform="translate(698,82)"/>
<path d="M0 0 C3.68754757 0.49831724 5.60490662 1.10067643 8 4 C7.67 4.99 7.34 5.98 7 7 C5.83040013 6.02433888 4.66438823 5.044375 3.5 4.0625 C2.8503125 3.51722656 2.200625 2.97195312 1.53125 2.41015625 C1.0259375 1.94480469 0.520625 1.47945313 0 1 C0 0.67 0 0.34 0 0 Z " fill="#EEE2E1" transform="translate(722,68)"/>
<path d="M0 0 C1.32 0.66 2.64 1.32 4 2 C1.03 4.475 1.03 4.475 -2 7 C-2.66 6.34 -3.32 5.68 -4 5 C-3.01 4.34 -2.02 3.68 -1 3 C-0.67 2.01 -0.34 1.02 0 0 Z " fill="#F1E9E6" transform="translate(60,191)"/>
<path d="M0 0 C0 0.99 0 1.98 0 3 C-1.8125 4.75 -1.8125 4.75 -4 6 C-4.99 5.67 -5.98 5.34 -7 5 C-6.67 3.68 -6.34 2.36 -6 1 C-4.7934375 1.0309375 -4.7934375 1.0309375 -3.5625 1.0625 C-1.06645115 1.29633621 -1.06645115 1.29633621 0 0 Z " fill="#5B2027" transform="translate(444,177)"/>
<path d="M0 0 C0.33 0.66 0.66 1.32 1 2 C1.99 2.33 2.98 2.66 4 3 C3.34 3.66 2.68 4.32 2 5 C1.34 5 0.68 5 0 5 C-2.01586684 5.96761608 -4.01753602 6.96567096 -6 8 C-6 7.34 -6 6.68 -6 6 C-5.195625 5.7525 -4.39125 5.505 -3.5625 5.25 C-0.828919 4.27761141 -0.828919 4.27761141 -0.1875 1.875 C-0.125625 1.25625 -0.06375 0.6375 0 0 Z " fill="#703038" transform="translate(750,174)"/>
<path d="M0 0 C2.24606427 1.77444972 2.95081002 2.58352485 3.29296875 5.48046875 C3.25816406 6.37378906 3.22335937 7.26710938 3.1875 8.1875 C3.16042969 9.08855469 3.13335938 9.98960938 3.10546875 10.91796875 C3.07066406 11.60503906 3.03585937 12.29210937 3 13 C2.67 13 2.34 13 2 13 C1.67 11.35 1.34 9.7 1 8 C0.67 8 0.34 8 0 8 C0 5.36 0 2.72 0 0 Z " fill="#DED1D2" transform="translate(685,115)"/>
<path d="M0 0 C1.65 0 3.3 0 5 0 C4.34 2.64 3.68 5.28 3 8 C1.58622659 5.36095629 0.62759865 2.92879371 0 0 Z " fill="#EFECE9" transform="translate(88,120)"/>
<path d="M0 0 C3.15467773 0.76943359 4.58588104 1.32952169 6.3125 4.125 C6.539375 4.74375 6.76625 5.3625 7 6 C2 4 2 4 -3 2 C-2.01 1.34 -1.02 0.68 0 0 Z " fill="#E5D6D4" transform="translate(233,97)"/>
<path d="M0 0 C-0.34879632 3.25543229 -1.02133261 4.01873107 -3.5625 6.25 C-4.366875 6.8275 -5.17125 7.405 -6 8 C-6 4 -6 4 -4.125 1.75 C-2 0 -2 0 0 0 Z " fill="#EAE1DD" transform="translate(671,60)"/>
<path d="M0 0 C2 1 2 1 3 3 C1.1875 4.0625 1.1875 4.0625 -1 5 C-1.99 4.67 -2.98 4.34 -4 4 C-4.33 3.34 -4.66 2.68 -5 2 C-2.625 0.9375 -2.625 0.9375 0 0 Z " fill="#E4D9D8" transform="translate(568,233)"/>
<path d="M0 0 C1.485 0.99 1.485 0.99 3 2 C3.36328125 4.09375 3.36328125 4.09375 3.3125 6.5 C3.30863281 7.2940625 3.30476562 8.088125 3.30078125 8.90625 C3 11 3 11 1 13 C1.33 9.7 1.66 6.4 2 3 C1.01 3 0.02 3 -1 3 C-0.67 2.01 -0.34 1.02 0 0 Z " fill="#EDDFDD" transform="translate(565,191)"/>
<path d="M0 0 C2.97 0 5.94 0 9 0 C9 0.99 9 1.98 9 3 C2.25 3.125 2.25 3.125 0 2 C0 1.34 0 0.68 0 0 Z " fill="#F8EFEE" transform="translate(722,187)"/>
<path d="M0 0 C-0.33 0.66 -0.66 1.32 -1 2 C-3.32156597 2.40729228 -5.6568787 2.74438677 -8 3 C-8 3.66 -8 4.32 -8 5 C-8.66 4.67 -9.32 4.34 -10 4 C-10 3.01 -10 2.02 -10 1 C-6.56484998 0.37542727 -3.50935186 0 0 0 Z " fill="#F2E4E6" transform="translate(628,185)"/>
<path d="M0 0 C2.88437779 1.29299694 4.87219421 2.65941363 7 5 C5.02 5.33 3.04 5.66 1 6 C1.33 5.01 1.66 4.02 2 3 C1.34 3 0.68 3 0 3 C0 2.01 0 1.02 0 0 Z " fill="#F2EAE9" transform="translate(699,177)"/>
<path d="M0 0 C0.66 0.66 1.32 1.32 2 2 C1.625 5.625 1.625 5.625 1 9 C0.34 9 -0.32 9 -1 9 C-2.25541557 5.23375329 -1.37061958 3.62811066 0 0 Z " fill="#6A3739" transform="translate(376,144)"/>
<path d="M0 0 C0.99 0 1.98 0 3 0 C1.8141763 3.37503669 0.72426311 5.64722731 -2 8 C-2.125 5.125 -2.125 5.125 -2 2 C-1.34 1.34 -0.68 0.68 0 0 Z " fill="#E7DBDA" transform="translate(557,144)"/>
<path d="M0 0 C1.32 1.65 2.64 3.3 4 5 C2.02 5.99 2.02 5.99 0 7 C0 6.01 0 5.02 0 4 C-0.99 3.67 -1.98 3.34 -3 3 C-3 2.34 -3 1.68 -3 1 C-2.01 0.67 -1.02 0.34 0 0 Z " fill="#F1F2F1" transform="translate(396,112)"/>
<path d="M0 0 C0.66 0.33 1.32 0.66 2 1 C2 3 2 3 0.8125 4.6875 C-1 6 -1 6 -3.6875 5.6875 C-4.450625 5.460625 -5.21375 5.23375 -6 5 C-5.195625 4.360625 -4.39125 3.72125 -3.5625 3.0625 C-1.7249496 1.59396498 -1.7249496 1.59396498 0 0 Z " fill="#EEE4E3" transform="translate(722,97)"/>
<path d="M0 0 C2.475 0.495 2.475 0.495 5 1 C5 4 5 4 4 7 C0 2.25 0 2.25 0 0 Z " fill="#723138" transform="translate(724,74)"/>
<path d="M0 0 C0.33 0.66 0.66 1.32 1 2 C0.34 2 -0.32 2 -1 2 C-1.33 2.99 -1.66 3.98 -2 5 C-4.31 5.33 -6.62 5.66 -9 6 C-6.11912454 3.59927045 -3.43595166 1.52708963 0 0 Z " fill="#ECDCDC" transform="translate(62,232)"/>
<path d="M0 0 C3.99500618 1.3697164 6.80009492 3.25722422 10 6 C6.05879291 5.43697042 3.2491277 4.3208055 0 2 C0 1.34 0 0.68 0 0 Z " fill="#56262C" transform="translate(528,227)"/>
<path d="M0 0 C1.32 1.32 2.64 2.64 4 4 C1.69 4.66 -0.62 5.32 -3 6 C-2.67 4.68 -2.34 3.36 -2 2 C-1.34 2 -0.68 2 0 2 C0 1.34 0 0.68 0 0 Z " fill="#70353C" transform="translate(533,202)"/>
<path d="M0 0 C2.15377564 2.62198774 3.40072174 4.64404172 4 8 C3.01 7.67 2.02 7.34 1 7 C1 6.34 1 5.68 1 5 C0.34 5 -0.32 5 -1 5 C-0.67 3.35 -0.34 1.7 0 0 Z " fill="#ECDDDB" transform="translate(506,200)"/>
<path d="M0 0 C2.475 0.99 2.475 0.99 5 2 C4.34 3.32 3.68 4.64 3 6 C2.01 5.34 1.02 4.68 0 4 C0 2.68 0 1.36 0 0 Z " fill="#6D3338" transform="translate(89,192)"/>
<path d="M0 0 C0.33 0.66 0.66 1.32 1 2 C-0.65 3.65 -2.3 5.3 -4 7 C-4.99 6.67 -5.98 6.34 -7 6 C-4.69 4.02 -2.38 2.04 0 0 Z " fill="#582329" transform="translate(374,151)"/>
<path d="M0 0 C0.66 0.66 1.32 1.32 2 2 C-0.25 2.6875 -0.25 2.6875 -3 3 C-5.3125 1.5625 -5.3125 1.5625 -7 0 C-4.29393021 -1.35303489 -2.8671629 -0.7884698 0 0 Z " fill="#EBE5E5" transform="translate(205,154)"/>
<path d="M0 0 C0.33 0.66 0.66 1.32 1 2 C1.99 2.33 2.98 2.66 4 3 C4.33 4.65 4.66 6.3 5 8 C0.125 4.375 0.125 4.375 -1 1 C-0.67 0.67 -0.34 0.34 0 0 Z " fill="#F1E5E3" transform="translate(339,146)"/>
<path d="M0 0 C0.99 0 1.98 0 3 0 C3.66 1.65 4.32 3.3 5 5 C4.01 5.33 3.02 5.66 2 6 C0 3 0 3 0 0 Z " fill="#F4F0EA" transform="translate(462,144)"/>
<path d="M0 0 C0.66 0.99 1.32 1.98 2 3 C1.01 3.99 0.02 4.98 -1 6 C-1.66 5.67 -2.32 5.34 -3 5 C-3 3.68 -3 2.36 -3 1 C-2.01 0.67 -1.02 0.34 0 0 Z " fill="#F2F0EE" transform="translate(513,111)"/>
<path d="M0 0 C2.475 0.99 2.475 0.99 5 2 C4.67 3.32 4.34 4.64 4 6 C3.34 5.67 2.68 5.34 2 5 C1.34 5 0.68 5 0 5 C-0.5625 3.0625 -0.5625 3.0625 -1 1 C-0.67 0.67 -0.34 0.34 0 0 Z " fill="#79333A" transform="translate(520,106)"/>
<path d="M0 0 C2 1 4 2 6 3 C5.67 3.66 5.34 4.32 5 5 C4.01 5.33 3.02 5.66 2 6 C2 5.34 2 4.68 2 4 C1.34 4 0.68 4 0 4 C0 2.68 0 1.36 0 0 Z " fill="#742F35" transform="translate(237,104)"/>
<path d="M0 0 C0.66 0 1.32 0 2 0 C1.60196439 2.88575819 1.20990931 3.82189513 -1.0625 5.75 C-1.701875 6.1625 -2.34125 6.575 -3 7 C-3.33 6.01 -3.66 5.02 -4 4 C-2.68 3.34 -1.36 2.68 0 2 C0 1.34 0 0.68 0 0 Z " fill="#F7F1EF" transform="translate(663,65)"/>
<path d="M0 0 C2.64 0.33 5.28 0.66 8 1 C5.35261084 2.4606285 4.10551666 3 1 3 C0.67 3.66 0.34 4.32 0 5 C0 3.35 0 1.7 0 0 Z " fill="#EFE6E3" transform="translate(540,235)"/>
<path d="M0 0 C0.99 0 1.98 0 3 0 C2.6875 1.875 2.6875 1.875 2 4 C1.01 4.66 0.02 5.32 -1 6 C-1.99 5.67 -2.98 5.34 -4 5 C-2.1875 2.5 -2.1875 2.5 0 0 Z " fill="#6A343C" transform="translate(226,190)"/>
<path d="M0 0 C1.2077558 3.62326739 0.54311128 4.64146369 -1 8 C-1.99 7.67 -2.98 7.34 -4 7 C-3.39816251 4.97954558 -2.72693904 2.97888961 -2 1 C-1.34 0.67 -0.68 0.34 0 0 Z " fill="#EDE3E2" transform="translate(72,173)"/>
<path d="M0 0 C0.99 0.33 1.98 0.66 3 1 C2.67 2.65 2.34 4.3 2 6 C0.68 5.34 -0.64 4.68 -2 4 C-1.34 2.68 -0.68 1.36 0 0 Z " fill="#632228" transform="translate(434,151)"/>
<path d="M0 0 C0.66 0.33 1.32 0.66 2 1 C1.67 2.65 1.34 4.3 1 6 C-0.65 4.68 -2.3 3.36 -4 2 C-2.125 0.9375 -2.125 0.9375 0 0 Z " fill="#6B3638" transform="translate(222,122)"/>
<path d="M0 0 C0.33 0.99 0.66 1.98 1 3 C-1.3125 3.625 -1.3125 3.625 -4 4 C-4.99 3.34 -5.98 2.68 -7 2 C-4.35261084 0.5393715 -3.10551666 0 0 0 Z " fill="#EADDDC" transform="translate(207,123)"/>
<path d="M0 0 C2.64 0 5.28 0 8 0 C8.33 0.66 8.66 1.32 9 2 C7.35 2.66 5.7 3.32 4 4 C2.68 2.68 1.36 1.36 0 0 Z " fill="#74353A" transform="translate(564,91)"/>
<path d="M0 0 C0.99 0.99 1.98 1.98 3 3 C3.33 2.01 3.66 1.02 4 0 C4.33 1.65 4.66 3.3 5 5 C4.01 5.495 4.01 5.495 3 6 C3 5.34 3 4.68 3 4 C2.01 4.33 1.02 4.66 0 5 C0 4.34 0 3.68 0 3 C-0.66 2.67 -1.32 2.34 -2 2 C-1.34 2 -0.68 2 0 2 C0 1.34 0 0.68 0 0 Z " fill="#F2F0ED" transform="translate(671,57)"/>
<path d="M0 0 C0.33 0.66 0.66 1.32 1 2 C1.66 2 2.32 2 3 2 C3 2.66 3 3.32 3 4 C2.01 4 1.02 4 0 4 C-0.33 4.99 -0.66 5.98 -1 7 C-1.66 5.68 -2.32 4.36 -3 3 C-2.01 2.01 -1.02 1.02 0 0 Z " fill="#71353D" transform="translate(692,27)"/>
<path d="M0 0 C0 0.99 0 1.98 0 3 C-0.99 3.66 -1.98 4.32 -3 5 C-3.99 4.67 -4.98 4.34 -6 4 C-5.67 3.01 -5.34 2.02 -5 1 C-3 0 -3 0 0 0 Z " fill="#6D3238" transform="translate(38,212)"/>
<path d="M0 0 C0.33 0.66 0.66 1.32 1 2 C0.67 2.66 0.34 3.32 0 4 C-0.66 4 -1.32 4 -2 4 C-2.33 4.99 -2.66 5.98 -3 7 C-3.99 6.67 -4.98 6.34 -6 6 C-5.67 5.01 -5.34 4.02 -5 3 C-3.68 3 -2.36 3 -1 3 C-0.67 2.01 -0.34 1.02 0 0 Z " fill="#782F37" transform="translate(83,208)"/>
<path d="M0 0 C0.33 0.66 0.66 1.32 1 2 C3.02463255 2.65213292 3.02463255 2.65213292 5 3 C5 3.66 5 4.32 5 5 C4.01 5.33 3.02 5.66 2 6 C1.01 4.68 0.02 3.36 -1 2 C-0.67 1.34 -0.34 0.68 0 0 Z " fill="#F4EEEC" transform="translate(535,200)"/>
<path d="M0 0 C0.66 0.66 1.32 1.32 2 2 C1.34 2 0.68 2 0 2 C-0.66 3.65 -1.32 5.3 -2 7 C-3.32 6.34 -4.64 5.68 -6 5 C-4.02 3.35 -2.04 1.7 0 0 Z " fill="#ECDDDA" transform="translate(641,175)"/>
<path d="M0 0 C-2.17424117 2.50037734 -3.73045798 3.43628586 -7 4 C-7 3.01 -7 2.02 -7 1 C-4.53721199 -0.231394 -2.7204945 -0.07159196 0 0 Z " fill="#F4E9E8" transform="translate(554,152)"/>
<path d="M0 0 C0.66 0.33 1.32 0.66 2 1 C1.67 3.31 1.34 5.62 1 8 C0.01 8 -0.98 8 -2 8 C-1.125 2.25 -1.125 2.25 0 0 Z " fill="#EEDFDE" transform="translate(194,132)"/>
<path d="M0 0 C0 0.33 0 0.66 0 1 C-3.96 0.67 -7.92 0.34 -12 0 C-12 -0.33 -12 -0.66 -12 -1 C-7.31034294 -2.11658501 -4.46236469 -1.80619523 0 0 Z " fill="#782F37" transform="translate(558,114)"/>
<path d="M0 0 C0.99 0.33 1.98 0.66 3 1 C3.33 2.65 3.66 4.3 4 6 C0.83884224 4.63016497 0.0072908 4.0109362 -2 1 C-1.34 0.67 -0.68 0.34 0 0 Z " fill="#F6EDEE" transform="translate(248,107)"/>
<path d="M0 0 C2.99324263 1.0975223 3.84610901 1.67682892 5.25 4.625 C5.4975 5.40875 5.745 6.1925 6 7 C5.01 6.67 4.02 6.34 3 6 C3 5.34 3 4.68 3 4 C2.34 4 1.68 4 1 4 C0.67 2.68 0.34 1.36 0 0 Z " fill="#581F22" transform="translate(728,77)"/>
<path d="M0 0 C2.125 0.375 2.125 0.375 4 1 C3.67 1.66 3.34 2.32 3 3 C1.67203709 3.35412344 0.33783393 3.68521554 -1 4 C-1.99 4.66 -2.98 5.32 -4 6 C-2.84826645 3.53199953 -1.95216435 1.95216435 0 0 Z " fill="#723039" transform="translate(716,65)"/>
</svg>
